<svg width="20" height="20" viewBox="0 0 20 20" fill="none" xmlns="http://www.w3.org/2000/svg">
<path d="M7.52265 17.2171L7.02041 16.3524V16.3524L7.52265 17.2171ZM6.90278 16.7483L5.91034 16.6255V16.6255L6.90278 16.7483ZM6.41209 14.1254L5.53873 14.6127L5.54478 14.6232L6.41209 14.1254ZM5.67131 12.7976L6.54466 12.3104L6.53862 12.2998L5.67131 12.7976ZM17.328 11.5222L17.8302 12.3869H17.8302L17.328 11.5222ZM17.2438 10.7563L17.6535 9.84409L17.6535 9.84408L17.2438 10.7563ZM15.2538 8.9902L14.3801 9.47688L14.3864 9.48796L15.2538 8.9902ZM14.5505 7.72769L15.4241 7.24101L15.4178 7.22992L14.5505 7.72769ZM7.51403 5.81296L8.01626 6.67769L7.51403 5.81296ZM12.1625 17.1553L12.6647 18.02L12.1625 17.1553ZM1.5607 9.74781C1.63858 10.2946 2.14496 10.6747 2.69173 10.5968C3.23849 10.5189 3.61859 10.0125 3.54071 9.46576L2.5507 9.60679L1.5607 9.74781ZM4.03535 6.95064C4.32422 6.47993 4.17681 5.86417 3.70609 5.57529C3.23538 5.28642 2.61961 5.43384 2.33074 5.90455L3.18305 6.4276L4.03535 6.95064ZM9.93799 1.50109C9.38581 1.51157 8.94666 1.96769 8.95714 2.51988C8.96762 3.07206 9.42374 3.51121 9.97593 3.50073L9.95696 2.50091L9.93799 1.50109ZM12.388 4.29851C12.8176 4.64558 13.4472 4.57867 13.7943 4.14907C14.1414 3.71946 14.0745 3.08984 13.6449 2.74277L13.0164 3.52064L12.388 4.29851ZM6.90278 16.7483L7.89522 16.871C8.00463 15.9861 7.94003 14.7787 7.2794 13.6277L6.41209 14.1254L5.54478 14.6232C5.92866 15.2921 5.98396 16.0301 5.91034 16.6255L6.90278 16.7483ZM6.41209 14.1254L7.28538 13.6382L6.5446 12.3104L5.67131 12.7976L4.79802 13.2848L5.5388 14.6126L6.41209 14.1254ZM17.2438 10.7563L17.6535 9.84408C17.1207 9.60483 16.5142 9.17742 16.1211 8.49243L15.2538 8.9902L14.3864 9.48796C15.045 10.6354 16.0323 11.3084 16.8341 11.6685L17.2438 10.7563ZM15.2538 8.9902L16.1274 8.50355L15.4241 7.24105L14.5505 7.72769L13.6769 8.21433L14.3802 9.47684L15.2538 8.9902ZM14.5505 7.72769L15.4178 7.22992C13.7188 4.26966 9.95687 3.23773 7.01179 4.94823L7.51403 5.81296L8.01626 6.67769C9.99001 5.53134 12.5287 6.21392 13.6832 8.22546L14.5505 7.72769ZM17.328 11.5222L17.8302 12.3869C18.4211 12.0438 18.5392 11.4181 18.4887 11.0066C18.4383 10.5962 18.1933 10.0865 17.6535 9.84409L17.2438 10.7563L16.8341 11.6685C16.5824 11.5555 16.5158 11.3497 16.5036 11.2503C16.4913 11.1498 16.5074 10.8424 16.8258 10.6575L17.328 11.5222ZM5.67131 12.7976L6.53862 12.2998C5.40292 10.321 6.07464 7.80539 8.01626 6.67769L7.51403 5.81296L7.01179 4.94823C4.106 6.63591 3.1277 10.3746 4.804 13.2954L5.67131 12.7976ZM7.52265 17.2171L7.02041 16.3524C7.3482 16.162 7.6292 16.3115 7.70777 16.3725C7.78611 16.4334 7.9292 16.5962 7.89522 16.871L6.90278 16.7483L5.91034 16.6255C5.83692 17.2193 6.15201 17.6967 6.48118 17.9522C6.81057 18.208 7.42123 18.4325 8.02488 18.0819L7.52265 17.2171ZM17.328 11.5222L16.8258 10.6575L7.02041 16.3524L7.52265 17.2171L8.02488 18.0819L17.8302 12.3869L17.328 11.5222ZM13.1229 13.9645L12.2556 14.4623C12.5794 15.0265 12.3913 15.8659 11.6602 16.2905L12.1625 17.1553L12.6647 18.02C14.2464 17.1013 14.9183 15.0837 13.9903 13.4667L13.1229 13.9645ZM12.1625 17.1553L11.6602 16.2905C10.9319 16.7136 10.124 16.4588 9.80265 15.8989L8.93534 16.3967L8.06803 16.8944C8.99849 18.5157 11.0803 18.9402 12.6647 18.02L12.1625 17.1553ZM8.10399 3.59803L7.23668 4.0958C7.40925 4.39648 7.30447 4.77824 7.01179 4.94823L7.51403 5.81296L8.01626 6.67769C9.26543 5.95218 9.68891 4.35062 8.9713 3.10026L8.10399 3.59803ZM7.51403 5.81296L7.01179 4.94823C6.72264 5.11617 6.35015 5.01893 6.17956 4.7217L5.31225 5.21947L4.44494 5.71724C5.16453 6.97106 6.76358 7.40525 8.01626 6.67769L7.51403 5.81296ZM5.31225 5.21947L6.17956 4.7217C6.00699 4.42102 6.11178 4.03926 6.40445 3.86927L5.90222 3.00454L5.39998 2.13981C4.15082 2.86532 3.72733 4.46688 4.44494 5.71724L5.31225 5.21947ZM5.90222 3.00454L6.40445 3.86927C6.6936 3.70133 7.0661 3.79857 7.23668 4.0958L8.10399 3.59803L8.9713 3.10026C8.25171 1.84644 6.65266 1.41225 5.39998 2.13981L5.90222 3.00454ZM2.5507 9.60679L3.54071 9.46576C3.41356 8.57316 3.58545 7.68376 4.03535 6.95064L3.18305 6.4276L2.33074 5.90455C1.6207 7.06158 1.37241 8.42604 1.5607 9.74781L2.5507 9.60679ZM9.95696 2.50091L9.97593 3.50073C10.8725 3.48372 11.7254 3.76321 12.388 4.29851L13.0164 3.52064L13.6449 2.74277C12.5908 1.89124 11.2711 1.4758 9.93799 1.50109L9.95696 2.50091Z" fill="#464646"/>
</svg>
