<svg width="204" height="204" viewBox="0 0 204 204" fill="none" xmlns="http://www.w3.org/2000/svg">
<path d="M1.97591 58.8877C-3.59933 95.0677 16.7408 134.679 44.4044 157.37C82.8818 188.925 125.039 197.158 148.757 158.634C171.666 121.426 153.104 99.1605 110.368 67.5518C69.4339 37.3073 8.76778 14.776 1.97591 58.8877Z" fill="#00236F"/>
<path opacity="0.9" d="M1.97591 58.8877C-3.59933 95.0677 16.7408 134.679 44.4044 157.37C82.8818 188.925 125.039 197.158 148.757 158.634C171.666 121.426 153.104 99.1605 110.368 67.5518C69.4339 37.3073 8.76778 14.776 1.97591 58.8877Z" fill="white"/>
<path d="M91.2207 33.9944L82.0605 167.759H193.754L203.871 19.9795H106.198L91.2207 33.9944Z" fill="#00236F"/>
<path opacity="0.8" d="M91.2207 33.9944L82.0605 167.759H193.754L203.871 19.9795H106.198L91.2207 33.9944Z" fill="white"/>
<path d="M184.614 65.1402C192.139 57.8688 192.733 46.2775 185.942 39.2503C179.152 32.2231 167.547 32.421 160.022 39.6924C152.498 46.9638 151.903 58.5551 158.694 65.5823C165.485 72.6095 177.09 72.4116 184.614 65.1402Z" fill="#00236F"/>
<path d="M183.966 64.4693C191.094 57.581 191.657 46.6007 185.225 39.944C178.792 33.2874 167.799 33.4752 160.671 40.3635C153.543 47.2518 152.979 58.2322 159.412 64.8888C165.844 71.5455 176.838 71.3576 183.966 64.4693Z" fill="white"/>
<mask id="mask0_150_5370" style="mask-type:luminance" maskUnits="userSpaceOnUse" x="154" y="35" width="36" height="35">
<path d="M183.966 64.4683C191.094 57.58 191.657 46.5997 185.225 39.943C178.792 33.2864 167.799 33.4742 160.671 40.3626C153.543 47.2509 152.979 58.2312 159.412 64.8879C165.844 71.5445 176.838 71.3566 183.966 64.4683Z" fill="white"/>
</mask>
<g mask="url(#mask0_150_5370)">
<path d="M167.762 58.4451L164.348 58.2207C164.348 58.2207 162.76 66.3946 161.744 67.0797C160.356 68.0423 157.61 70.3693 155.785 71.2138C155.596 71.7668 155.558 72.3597 155.672 72.9325C158.507 72.9325 163.752 70.1094 164.655 68.881C166.728 66.1229 167.762 58.4451 167.762 58.4451Z" fill="#FFC3BD"/>
<path d="M169.392 53.3189C170.426 55.2442 167.207 62.1778 167.207 62.1778L162.825 60.8076C162.951 58.6758 163.444 56.5819 164.283 54.6182C165.37 52.3562 168.258 51.2045 169.392 53.3189Z" fill="#263238"/>
<path opacity="0.2" d="M166.043 56.8623C166.634 58.2561 165.86 61.6225 165.252 63.7546C163.769 61.215 163.563 58.8526 166.043 56.8623Z" fill="black"/>
<path d="M166.025 53.661C165.352 56.1238 164.029 62.5909 165.11 72.7432H176.644C176.91 70.812 176.574 61.3801 179.284 52.279C177.91 52.0071 176.519 51.8295 175.121 51.7475C173.339 51.6441 171.552 51.6441 169.77 51.7475C169.009 51.8181 168.256 51.9565 167.52 52.1609C167.162 52.2597 166.836 52.45 166.574 52.713C166.312 52.976 166.123 53.3028 166.025 53.661Z" fill="#263238"/>
<path opacity="0.2" d="M176.343 54.5231C175.995 56.0232 176.131 59.6081 177.176 63.7541C177.486 60.1835 178.104 56.6464 179.025 53.1824C178.204 53.082 176.674 53.1293 176.343 54.5231Z" fill="black"/>
<path d="M174.885 46.7393C174.389 48.4638 174.023 50.5959 175.121 51.7475C175.121 51.7475 174.265 53.5193 171.07 53.5193C168.146 53.5193 169.77 51.7475 169.77 51.7475C171.731 51.2869 171.855 48.9127 171.642 47.5779L174.885 46.7393Z" fill="#FFC3BD"/>
<path d="M171.063 53.49C171.361 53.9904 171.521 54.5612 171.524 55.1436C171.524 55.1436 175.658 53.7321 175.658 51.6591C175.658 51.6591 175.121 51.3225 174.784 51.0685C174.796 51.0508 174.518 52.6631 171.063 53.49Z" fill="white"/>
<path d="M170.951 53.49C170.579 53.9397 170.302 54.46 170.136 55.0196C169.649 54.6471 169.293 54.1292 169.12 53.541C168.947 52.9527 168.966 52.3247 169.174 51.7477C169.517 51.6103 169.87 51.4997 170.231 51.417C170.231 51.417 169.729 53.047 170.951 53.49Z" fill="white"/>
<path opacity="0.2" d="M171.654 47.5779C171.824 48.5265 171.728 49.5037 171.376 50.401C171.681 50.3575 171.977 50.2699 172.256 50.1411C173.39 49.6273 173.999 48.8241 174.666 47.637C174.731 47.3299 174.814 47.0464 174.896 46.7393L171.654 47.5779Z" fill="black"/>
<path d="M168.849 45.9834C168.936 46.2449 169.078 46.4851 169.264 46.6886C169.45 46.892 169.677 47.0542 169.929 47.1646C170.62 47.4599 171.111 46.828 171.069 46.1015C171.028 45.3751 170.591 44.501 169.829 44.5128C169.657 44.5211 169.49 44.5695 169.34 44.6543C169.191 44.739 169.063 44.8577 168.968 45.0007C168.872 45.1438 168.812 45.3072 168.791 45.4779C168.77 45.6486 168.79 45.8217 168.849 45.9834Z" fill="#FFC3BD"/>
<path opacity="0.2" d="M168.849 45.9834C168.936 46.2449 169.078 46.4851 169.264 46.6886C169.45 46.892 169.677 47.0542 169.929 47.1646C170.62 47.4599 171.111 46.828 171.069 46.1015C171.028 45.3751 170.591 44.501 169.829 44.5128C169.657 44.5211 169.49 44.5695 169.34 44.6543C169.191 44.739 169.063 44.8577 168.968 45.0007C168.872 45.1438 168.812 45.3072 168.791 45.4779C168.77 45.6486 168.79 45.8217 168.849 45.9834Z" fill="black"/>
<path d="M171.937 41.1581C171.713 39.7938 169.699 42.1916 170.13 43.4555C170.561 44.7194 172.185 42.6936 171.937 41.1581Z" fill="#263238"/>
<path d="M176.249 44.6186C175.511 46.9042 175.192 48.2685 173.745 49.2489C173.307 49.5837 172.782 49.7857 172.233 49.8309C171.684 49.8761 171.133 49.7625 170.646 49.5036C170.16 49.2448 169.758 48.8516 169.488 48.3709C169.219 47.8902 169.093 47.3422 169.126 46.792C169.185 44.6304 170.384 41.2581 172.829 40.7266C175.274 40.1951 176.969 42.333 176.249 44.6186Z" fill="#FFC3BD"/>
<path d="M175.576 43.2666C173.083 42.9123 169.504 42.4516 170.804 40.4141C172.038 38.471 176.963 38.8253 175.469 39.6876C177.401 39.7998 179.857 40.7271 178.003 41.3649C179.497 42.428 178.907 45.2747 176.054 46.2669C175.233 45.0739 174.607 44.5482 175.576 43.2666Z" fill="#263238"/>
<path d="M176.603 47.3422C176.182 47.7739 175.616 48.0347 175.015 48.0746C174.235 48.1159 174.087 47.3717 174.507 46.728C174.926 46.0842 175.741 45.4287 176.426 45.6944C177.111 45.9602 177.129 46.7989 176.603 47.3422Z" fill="#FFC3BD"/>
<path d="M172.664 44.6668C172.617 44.8558 172.481 44.9857 172.357 44.968C172.233 44.9503 172.18 44.779 172.233 44.59C172.286 44.401 172.416 44.2652 172.534 44.2888C172.652 44.3124 172.717 44.4778 172.664 44.6668Z" fill="#263238"/>
<path d="M170.591 44.3005C170.544 44.4895 170.408 44.6253 170.29 44.6017C170.172 44.5781 170.113 44.4127 170.16 44.2237C170.207 44.0347 170.343 43.9048 170.467 43.9225C170.591 43.9402 170.644 44.1115 170.591 44.3005Z" fill="#263238"/>
<path d="M171.229 44.5127C170.858 45.0491 170.421 45.5371 169.93 45.9656C170.035 46.0793 170.164 46.1672 170.309 46.2225C170.453 46.2779 170.608 46.2991 170.762 46.2845L171.229 44.5127Z" fill="#ED847E"/>
<path d="M171.164 46.8991C171.157 46.8977 171.15 46.8949 171.144 46.8909C171.138 46.8868 171.133 46.8816 171.129 46.8755C171.126 46.8694 171.123 46.8626 171.122 46.8555C171.121 46.8484 171.121 46.8411 171.123 46.8341C171.128 46.8197 171.137 46.8072 171.15 46.7987C171.163 46.7902 171.178 46.786 171.194 46.7869C171.43 46.8284 171.672 46.8166 171.903 46.7522C172.134 46.6878 172.348 46.5725 172.528 46.4148C172.533 46.4096 172.539 46.4055 172.546 46.4027C172.552 46.3999 172.56 46.3984 172.567 46.3984C172.574 46.3984 172.581 46.3999 172.588 46.4027C172.594 46.4055 172.6 46.4096 172.605 46.4148C172.616 46.4259 172.622 46.4407 172.622 46.4562C172.622 46.4716 172.616 46.4865 172.605 46.4975C172.411 46.6699 172.181 46.7956 171.931 46.8652C171.681 46.9349 171.419 46.9464 171.164 46.8991Z" fill="#263238"/>
<path d="M173.467 44.0874C173.451 44.085 173.436 44.0782 173.423 44.0678C173.411 44.0574 173.401 44.0437 173.396 44.0283C173.347 43.9032 173.267 43.7926 173.164 43.7068C173.061 43.6211 172.937 43.563 172.805 43.5381C172.791 43.5377 172.777 43.5341 172.765 43.5275C172.752 43.521 172.741 43.5117 172.733 43.5004C172.724 43.489 172.718 43.4759 172.716 43.462C172.713 43.4481 172.713 43.4337 172.717 43.42C172.723 43.3903 172.739 43.3637 172.763 43.3452C172.787 43.3267 172.817 43.3176 172.847 43.3196C173.014 43.3441 173.172 43.4113 173.305 43.5148C173.439 43.6183 173.543 43.7545 173.609 43.9102C173.619 43.9385 173.617 43.9694 173.605 43.9968C173.593 44.0242 173.571 44.0461 173.544 44.0578C173.534 44.0679 173.522 44.0757 173.508 44.0808C173.495 44.0859 173.481 44.0882 173.467 44.0874Z" fill="#263238"/>
<path d="M169.882 43.3849C169.869 43.3899 169.854 43.3899 169.841 43.3849C169.831 43.375 169.822 43.363 169.817 43.3498C169.811 43.3366 169.808 43.3224 169.808 43.3081C169.808 43.2938 169.811 43.2796 169.817 43.2664C169.822 43.2532 169.831 43.2413 169.841 43.2313C169.959 43.0922 170.107 42.9812 170.273 42.9066C170.44 42.832 170.621 42.7956 170.804 42.8002C170.818 42.8023 170.831 42.8073 170.843 42.8147C170.855 42.8221 170.866 42.8319 170.874 42.8435C170.882 42.8551 170.888 42.8682 170.891 42.882C170.894 42.8959 170.895 42.9102 170.892 42.9242C170.886 42.955 170.869 42.9825 170.844 43.0011C170.819 43.0197 170.787 43.0281 170.756 43.0246C170.612 43.0229 170.47 43.0532 170.339 43.1135C170.208 43.1738 170.093 43.2624 170 43.3731C169.984 43.3866 169.964 43.3949 169.943 43.397C169.922 43.3991 169.901 43.3949 169.882 43.3849Z" fill="#263238"/>
<path d="M180.3 55.4385L177.176 57.0981C177.176 57.0981 180.194 64.5396 179.68 65.6558C178.977 67.1795 177.814 70.5282 176.668 72.1878C176.803 72.741 177.092 73.2446 177.501 73.6407C180.005 72.1287 183.082 67.0201 183.218 65.5436C183.525 62.1713 180.3 55.4385 180.3 55.4385Z" fill="#FFC3BD"/>
<path d="M179.285 52.2791C181.47 52.663 183.076 60.4471 183.076 60.4471L177.69 61.9885C176.925 60.1984 176.291 58.3548 175.794 56.4723C175.08 53.5902 176.97 51.8598 179.285 52.2791Z" fill="#263238"/>
</g>
<path d="M178.67 151.994C186.194 144.722 186.789 133.131 179.998 126.104C173.207 119.077 161.602 119.275 154.078 126.546C146.553 133.817 145.959 145.409 152.75 152.436C159.54 159.463 171.145 159.265 178.67 151.994Z" fill="#00236F"/>
<path d="M178.021 151.317C185.149 144.429 185.713 133.448 179.28 126.792C172.848 120.135 161.854 120.323 154.726 127.211C147.598 134.1 147.035 145.08 153.467 151.736C159.9 158.393 170.893 158.205 178.021 151.317Z" fill="white"/>
<mask id="mask1_150_5370" style="mask-type:luminance" maskUnits="userSpaceOnUse" x="148" y="121" width="36" height="36">
<path d="M178.021 151.317C185.149 144.429 185.713 133.448 179.28 126.792C172.848 120.135 161.854 120.323 154.726 127.211C147.598 134.1 147.035 145.08 153.467 151.736C159.9 158.393 170.893 158.205 178.021 151.317Z" fill="white"/>
</mask>
<g mask="url(#mask1_150_5370)">
<path d="M160.338 145.464L157.131 144.419C157.131 144.419 153.641 152.097 152.501 152.557C150.942 153.148 147.776 154.808 145.821 155.203C145.504 155.706 145.321 156.281 145.29 156.875C147.994 157.572 153.682 156.036 154.845 155.038C157.479 152.77 160.338 145.464 160.338 145.464Z" fill="#FFB573"/>
<path d="M163.132 140.78C163.651 142.93 158.903 149.019 158.903 149.019L155.058 146.586C155.691 144.518 156.668 142.572 157.946 140.828C159.529 138.861 162.559 138.424 163.132 140.78Z" fill="#00236F"/>
<path opacity="0.3" d="M163.132 140.78C163.651 142.93 158.903 149.019 158.903 149.019L155.058 146.586C155.691 144.518 156.668 142.572 157.946 140.828C159.529 138.861 162.559 138.424 163.132 140.78Z" fill="black"/>
<path opacity="0.2" d="M160.131 143.456C160.491 144.944 160.167 147.324 159.216 149.362C158.371 148.08 157.385 145.027 160.131 143.456Z" fill="black"/>
<path d="M160.078 140.538C159.405 143.001 158.088 149.468 159.163 159.62H170.703C170.969 157.689 170.626 148.257 173.337 139.156C171.963 138.884 170.572 138.706 169.173 138.624C167.391 138.521 165.605 138.521 163.822 138.624C163.062 138.696 162.309 138.834 161.572 139.038C161.215 139.138 160.89 139.328 160.628 139.591C160.366 139.854 160.177 140.18 160.078 140.538Z" fill="#00236F"/>
<path opacity="0.3" d="M160.078 140.538C159.405 143.001 158.088 149.468 159.163 159.62H170.703C170.969 157.689 170.626 148.257 173.337 139.156C171.963 138.884 170.572 138.706 169.173 138.624C167.391 138.521 165.605 138.521 163.822 138.624C163.062 138.696 162.309 138.834 161.572 139.038C161.215 139.138 160.89 139.328 160.628 139.591C160.366 139.854 160.177 140.18 160.078 140.538Z" fill="black"/>
<path opacity="0.2" d="M170.437 143.308C170.089 144.808 169.782 148.369 171.229 150.602C171.541 147.031 172.161 143.494 173.083 140.03C172.245 139.947 170.768 141.902 170.437 143.308Z" fill="black"/>
<g opacity="0.95">
<path d="M164.974 143.231L164.342 143.509L163.858 143.072C163.243 142.562 162.796 141.878 162.576 141.11C162.355 140.342 162.372 139.525 162.624 138.766C163.014 138.689 163.409 138.632 163.805 138.595C165.587 138.492 167.374 138.492 169.156 138.595C169.569 138.595 169.983 138.648 170.384 138.69L169.983 139.203C168.628 140.896 166.918 142.271 164.974 143.231Z" fill="white"/>
</g>
<path d="M168.943 133.587C168.441 135.311 168.075 137.444 169.173 138.595C167.931 140.132 166.372 141.383 164.602 142.263C164.061 141.841 163.686 141.242 163.543 140.571C163.401 139.9 163.499 139.2 163.822 138.595C165.789 138.134 165.907 135.76 165.694 134.426L168.943 133.587Z" fill="#FFB573"/>
<path opacity="0.2" d="M165.695 134.426C165.865 135.374 165.769 136.351 165.417 137.249C165.723 137.204 166.021 137.117 166.303 136.989C167.431 136.475 168.039 135.672 168.707 134.485C168.777 134.178 168.854 133.894 168.943 133.587L165.695 134.426Z" fill="black"/>
<path d="M162.901 132.86C162.989 133.123 163.131 133.364 163.318 133.567C163.505 133.771 163.734 133.932 163.988 134.042C164.679 134.337 165.169 133.705 165.122 132.978C165.075 132.252 164.643 131.378 163.888 131.39C163.715 131.397 163.547 131.445 163.397 131.529C163.247 131.614 163.118 131.732 163.022 131.875C162.926 132.019 162.865 132.182 162.844 132.353C162.823 132.525 162.843 132.698 162.901 132.86Z" fill="#FFB573"/>
<path opacity="0.2" d="M162.901 132.86C162.989 133.123 163.131 133.364 163.318 133.567C163.505 133.771 163.734 133.932 163.988 134.042C164.679 134.337 165.169 133.705 165.122 132.978C165.075 132.252 164.643 131.378 163.888 131.39C163.715 131.397 163.547 131.445 163.397 131.529C163.247 131.614 163.118 131.732 163.022 131.875C162.926 132.019 162.865 132.182 162.844 132.353C162.823 132.525 162.843 132.698 162.901 132.86Z" fill="black"/>
<path d="M165.636 128.791C165.411 127.25 163.698 129.015 163.504 130.144C163.309 131.272 164.254 132.411 164.897 131.325C165.541 130.238 165.748 129.624 165.636 128.791Z" fill="#263238"/>
<path d="M170.301 131.466C169.563 133.752 169.244 135.11 167.797 136.097C167.359 136.431 166.835 136.633 166.285 136.679C165.736 136.724 165.185 136.61 164.699 136.351C164.212 136.092 163.81 135.699 163.541 135.219C163.271 134.738 163.145 134.19 163.179 133.64C163.238 131.478 164.436 128.106 166.882 127.574C169.327 127.043 171.063 129.181 170.301 131.466Z" fill="#FFB573"/>
<path d="M169.185 133.859C168.299 133.268 168.14 133.044 168.594 132.512C169.362 131.65 168.222 131.526 168.825 130.457C169.663 128.968 166.988 130.014 166.941 128.933C166.899 128.053 164.578 129.636 164.336 128.62C163.988 127.096 166.22 127.38 166.61 126.636C167 125.891 169.291 125.779 169.657 126.866C170.024 127.953 171.175 127.084 171.925 128.407C172.675 129.73 171.122 129.831 171.872 131.118C172.463 132.152 171.323 132.89 170.514 133.711C170.029 134.242 169.734 134.231 169.185 133.859Z" fill="#263238"/>
<path d="M170.803 133.876C170.421 134.345 169.878 134.654 169.28 134.744C168.5 134.85 168.287 134.154 168.654 133.451C169.02 132.748 169.776 132.057 170.484 132.27C171.193 132.482 171.282 133.291 170.803 133.876Z" fill="#FFB573"/>
<path d="M166.716 131.513C166.669 131.702 166.533 131.832 166.415 131.815C166.297 131.797 166.238 131.626 166.285 131.437C166.333 131.248 166.468 131.112 166.592 131.135C166.716 131.159 166.77 131.324 166.716 131.513Z" fill="#263238"/>
<path d="M164.649 131.148C164.596 131.337 164.46 131.473 164.342 131.449C164.224 131.426 164.165 131.26 164.212 131.071C164.259 130.882 164.401 130.752 164.519 130.77C164.637 130.788 164.696 130.959 164.649 131.148Z" fill="#263238"/>
<path d="M165.281 131.36C164.913 131.897 164.478 132.385 163.988 132.813C164.093 132.927 164.222 133.015 164.367 133.07C164.511 133.126 164.667 133.147 164.821 133.132L165.281 131.36Z" fill="#ED893E"/>
<path d="M165.216 133.746C165.209 133.745 165.203 133.742 165.197 133.738C165.191 133.734 165.186 133.729 165.183 133.722C165.18 133.716 165.178 133.709 165.177 133.702C165.177 133.695 165.178 133.688 165.181 133.681C165.184 133.667 165.192 133.654 165.204 133.645C165.216 133.636 165.231 133.632 165.246 133.634C165.482 133.676 165.725 133.664 165.955 133.599C166.186 133.535 166.4 133.42 166.581 133.262C166.586 133.257 166.592 133.253 166.598 133.25C166.605 133.247 166.612 133.246 166.619 133.246C166.626 133.246 166.633 133.247 166.64 133.25C166.646 133.253 166.652 133.257 166.657 133.262C166.663 133.267 166.667 133.273 166.669 133.28C166.672 133.286 166.673 133.293 166.673 133.3C166.673 133.308 166.672 133.315 166.669 133.321C166.667 133.328 166.663 133.334 166.657 133.339C166.464 133.512 166.234 133.639 165.984 133.71C165.734 133.78 165.472 133.793 165.216 133.746Z" fill="#263238"/>
<path d="M167.52 130.935C167.504 130.933 167.489 130.926 167.476 130.915C167.464 130.905 167.454 130.891 167.449 130.876C167.4 130.751 167.32 130.64 167.217 130.554C167.114 130.469 166.99 130.411 166.858 130.386C166.845 130.384 166.831 130.38 166.819 130.373C166.807 130.366 166.796 130.357 166.788 130.346C166.78 130.335 166.774 130.322 166.771 130.309C166.768 130.295 166.767 130.281 166.77 130.268C166.775 130.238 166.792 130.211 166.816 130.193C166.84 130.174 166.869 130.165 166.9 130.167C167.067 130.192 167.225 130.259 167.358 130.362C167.492 130.466 167.596 130.602 167.662 130.758C167.671 130.786 167.67 130.817 167.658 130.844C167.646 130.872 167.624 130.894 167.597 130.906C167.587 130.916 167.575 130.923 167.561 130.928C167.548 130.934 167.534 130.936 167.52 130.935Z" fill="#263238"/>
<path d="M163.911 130.232C163.898 130.236 163.883 130.236 163.87 130.232C163.859 130.222 163.851 130.21 163.845 130.197C163.84 130.184 163.837 130.17 163.837 130.155C163.837 130.141 163.84 130.127 163.845 130.113C163.851 130.1 163.859 130.088 163.87 130.078C163.985 129.938 164.132 129.826 164.298 129.751C164.464 129.676 164.645 129.641 164.826 129.647C164.841 129.649 164.854 129.654 164.866 129.662C164.878 129.669 164.889 129.679 164.897 129.691C164.905 129.702 164.911 129.715 164.914 129.729C164.917 129.743 164.918 129.757 164.915 129.771C164.909 129.801 164.893 129.828 164.869 129.846C164.845 129.865 164.815 129.874 164.785 129.872C164.641 129.869 164.498 129.899 164.367 129.959C164.236 130.02 164.121 130.109 164.029 130.22C164.012 130.232 163.992 130.24 163.972 130.242C163.951 130.244 163.93 130.241 163.911 130.232Z" fill="#263238"/>
<path d="M174.607 142.552L171.323 143.804C171.323 143.804 173.325 151.641 172.676 152.692C171.79 154.127 170.213 157.328 168.872 158.84C168.931 159.409 169.15 159.95 169.504 160.4C172.156 159.218 175.847 154.494 176.172 153.035C176.898 149.698 174.607 142.552 174.607 142.552Z" fill="#FFB573"/>
<path d="M174.016 139.257C176.113 139.924 176.686 147.915 176.686 147.915L171.193 148.766C170.672 146.877 170.289 144.952 170.047 143.007C169.705 140.031 171.76 138.542 174.016 139.257Z" fill="#00236F"/>
<path opacity="0.3" d="M174.016 139.257C176.113 139.924 176.686 147.915 176.686 147.915L171.193 148.766C170.672 146.877 170.289 144.952 170.047 143.007C169.705 140.031 171.76 138.542 174.016 139.257Z" fill="black"/>
</g>
<path d="M127.03 108.57C134.554 101.299 135.149 89.7072 128.358 82.68C121.567 75.6528 109.962 75.8507 102.438 83.1221C94.9133 90.3935 94.3186 101.985 101.109 109.012C107.9 116.039 119.505 115.841 127.03 108.57Z" fill="#00236F"/>
<path d="M126.381 107.899C133.509 101.011 134.073 90.0303 127.64 83.3737C121.208 76.7171 110.214 76.9049 103.086 83.7932C95.9581 90.6815 95.3944 101.662 101.827 108.319C108.26 114.975 119.253 114.787 126.381 107.899Z" fill="white"/>
<mask id="mask2_150_5370" style="mask-type:luminance" maskUnits="userSpaceOnUse" x="97" y="78" width="36" height="36">
<path d="M126.381 107.899C133.509 101.011 134.073 90.0303 127.64 83.3737C121.208 76.7171 110.214 76.9049 103.086 83.7932C95.9581 90.6815 95.3944 101.662 101.827 108.319C108.26 114.975 119.253 114.787 126.381 107.899Z" fill="white"/>
</mask>
<g mask="url(#mask2_150_5370)">
<path d="M121.991 99.9346C122.079 101.34 122.15 102.758 122.204 104.169L122.375 108.386L122.404 108.9L122.446 109.349C122.493 109.656 122.528 109.975 122.593 110.305C122.717 110.955 122.877 111.617 123.066 112.278C123.42 113.607 123.851 114.948 124.247 116.27L123.024 116.861C122.285 115.61 121.632 114.309 121.07 112.969C120.798 112.29 120.544 111.599 120.325 110.872C120.209 110.504 120.112 110.129 120.036 109.75L119.936 109.16L119.877 108.616C119.564 105.758 119.357 102.941 119.245 100.1L121.991 99.9346Z" fill="#FF8B7B"/>
<path d="M121.341 96.8335C122.416 97.1111 122.877 101.635 122.877 101.635L118.501 104.511C118.501 104.511 117.136 99.1545 118.064 97.9497C118.991 96.7449 119.765 96.4319 121.341 96.8335Z" fill="#00236F"/>
<path opacity="0.2" d="M121.17 97.8496L121.702 102.403L119.924 103.561L121.17 97.8496Z" fill="black"/>
<path d="M109.346 85.1871C107.498 85.4529 103.629 94.2882 109.937 98.4106C116.244 102.533 120.898 97.8495 120.898 97.8495C120.898 97.8495 117.059 93.2901 117.615 90.3135C118.17 87.3369 120.568 83.5866 115.654 82.3346C112.193 81.4782 107.539 82.305 109.346 85.1871Z" fill="#263238"/>
<path d="M121.342 96.8339C121.342 96.8339 122.576 97.2828 118.979 112.922H108.142C108.626 108.516 108.815 105.799 107.327 96.7572C108.858 96.4496 110.409 96.2522 111.969 96.1666C113.605 96.0512 115.247 96.0512 116.883 96.1666C118.979 96.3497 121.342 96.8339 121.342 96.8339Z" fill="#00236F"/>
<path opacity="0.2" d="M107.976 100.342C108.939 100.584 109.748 101.653 109.529 103.626C109.4 104.534 109.029 105.391 108.454 106.106C108.39 104.588 108.218 102.828 107.911 100.578L107.976 100.342Z" fill="black"/>
<path d="M116.073 99.6213C116.073 99.6213 114.201 101.086 114.095 102.639C112.695 101.558 110.905 98.6173 110.829 96.7333C110.829 96.5766 110.891 96.4264 111.002 96.3156C111.112 96.2049 111.263 96.1427 111.419 96.1427C111.552 96.1327 111.684 96.1149 111.815 96.0895C111.869 96.0776 111.926 96.0783 111.98 96.0916C112.035 96.1049 112.085 96.1304 112.128 96.1663L116.073 99.6213Z" fill="#FAFAFA"/>
<path d="M116.073 99.6215C116.571 99.9318 116.987 100.357 117.286 100.862C117.585 101.367 117.759 101.936 117.792 102.521C119.363 101.429 118.825 98.1627 118.099 96.5622C118.043 96.4376 117.955 96.3301 117.844 96.2503C117.733 96.1705 117.603 96.1212 117.467 96.1074C117.254 96.1074 117.089 96.0543 116.977 96.0306C116.936 96.0236 116.894 96.0326 116.86 96.0558C116.826 96.0789 116.802 96.1143 116.794 96.1547L116.073 99.6215Z" fill="#FAFAFA"/>
<path d="M112.831 90.6211C113.032 92.2039 113.144 95.1037 111.969 96.155C113.071 97.5932 114.471 98.7759 116.073 99.6218C118.389 97.85 116.883 96.155 116.883 96.155C115.146 95.7357 115.282 94.4305 115.672 93.202L112.831 90.6211Z" fill="#FF8B7B"/>
<path opacity="0.2" d="M113.988 91.6719L115.671 93.1956C115.576 93.4803 115.504 93.7728 115.459 94.0697C114.791 93.9693 113.776 93.3964 113.687 92.6641C113.708 92.3143 113.812 91.9745 113.988 91.6719Z" fill="black"/>
<path d="M110.356 88.0815C110.911 90.627 111.094 91.7137 112.618 92.7472C113.128 93.109 113.726 93.3292 114.349 93.3854C114.972 93.4417 115.599 93.3319 116.166 93.0673C116.733 92.8028 117.22 92.3928 117.577 91.8791C117.934 91.3654 118.149 90.7663 118.199 90.1427C118.406 87.7035 117.461 83.9532 114.744 83.4926C114.128 83.3964 113.498 83.4506 112.907 83.6506C112.316 83.8506 111.783 84.1905 111.352 84.6412C110.921 85.0919 110.605 85.6401 110.432 86.2392C110.258 86.8382 110.232 87.4702 110.356 88.0815Z" fill="#FF8B7B"/>
<path d="M111.083 90.3723C112.719 88.8131 112.778 86.8819 112.364 86.2795C113.77 86.1613 117.408 85.2754 116.823 83.9171C116.239 82.5587 110.575 81.8264 109.795 85.2991C107.917 86.8701 109.116 90.0179 111.083 90.3723Z" fill="#263238"/>
<path d="M114.632 87.8503C114.668 88.0629 114.803 88.2047 114.945 88.1751C115.087 88.1456 115.17 87.9507 115.134 87.744C115.099 87.5373 114.963 87.3837 114.827 87.4192C114.691 87.4546 114.603 87.6436 114.632 87.8503Z" fill="#263238"/>
<path d="M117.042 87.3247C117.071 87.5373 117.213 87.6791 117.349 87.6495C117.485 87.62 117.579 87.4251 117.544 87.2125C117.509 86.9999 117.373 86.8581 117.237 86.8877C117.157 86.925 117.094 86.9897 117.058 87.07C117.022 87.1502 117.017 87.2406 117.042 87.3247Z" fill="#263238"/>
<path d="M117.172 86.9181L117.662 86.6582C117.662 86.6582 117.461 87.1071 117.172 86.9181Z" fill="#263238"/>
<path d="M116.356 87.8682C116.619 88.3061 116.943 88.7039 117.319 89.0494C117.224 89.1493 117.11 89.2282 116.983 89.2811C116.855 89.334 116.719 89.3596 116.581 89.3565L116.356 87.8682Z" fill="#FF5652"/>
<path d="M115.548 90.4199C115.655 90.4141 115.761 90.4003 115.866 90.3786C115.883 90.3744 115.898 90.3643 115.907 90.3502C115.917 90.3361 115.922 90.3189 115.92 90.3018C115.919 90.2936 115.917 90.2855 115.913 90.2783C115.909 90.2711 115.903 90.265 115.896 90.2604C115.889 90.2558 115.881 90.2529 115.873 90.2519C115.865 90.2509 115.857 90.2518 115.849 90.2546C115.593 90.321 115.325 90.3241 115.067 90.2633C114.81 90.2026 114.571 90.08 114.372 89.9061C114.36 89.8949 114.344 89.8887 114.328 89.8887C114.312 89.8887 114.296 89.8949 114.284 89.9061C114.277 89.9117 114.272 89.9185 114.269 89.9261C114.265 89.9338 114.264 89.942 114.264 89.9504C114.264 89.9588 114.265 89.9671 114.269 89.9747C114.272 89.9823 114.277 89.9892 114.284 89.9947C114.453 90.1504 114.653 90.2687 114.87 90.3419C115.088 90.4152 115.319 90.4418 115.548 90.4199Z" fill="#263238"/>
<path d="M110.014 90.621C110.144 90.8306 110.316 91.0108 110.519 91.1501C110.722 91.2895 110.953 91.3848 111.195 91.4301C111.857 91.5541 112.17 90.9399 111.975 90.3434C111.78 89.7469 111.242 89.0972 110.587 89.2449C110.444 89.2762 110.311 89.3416 110.198 89.4354C110.086 89.5292 109.998 89.6487 109.942 89.7837C109.886 89.9188 109.863 90.0654 109.875 90.2112C109.888 90.3569 109.935 90.4975 110.014 90.621Z" fill="#FF8B7B"/>
<path d="M113.504 87.3837C113.531 87.3807 113.556 87.3694 113.576 87.3514C113.597 87.3334 113.611 87.3096 113.616 87.2833C113.771 86.884 114.077 86.5615 114.467 86.3856C114.483 86.3791 114.497 86.3695 114.51 86.3574C114.522 86.3452 114.532 86.3308 114.538 86.3148C114.545 86.2989 114.548 86.2818 114.548 86.2645C114.548 86.2473 114.545 86.2302 114.538 86.2143C114.531 86.1998 114.522 86.1867 114.511 86.1758C114.499 86.1649 114.486 86.1564 114.471 86.1509C114.456 86.1454 114.44 86.1429 114.424 86.1437C114.408 86.1444 114.393 86.1484 114.378 86.1553C114.146 86.2588 113.937 86.4078 113.764 86.5934C113.591 86.7791 113.456 86.9976 113.368 87.2361C113.364 87.252 113.363 87.2687 113.366 87.285C113.368 87.3013 113.374 87.3169 113.383 87.3309C113.392 87.3448 113.404 87.3567 113.417 87.3658C113.431 87.3749 113.447 87.381 113.463 87.3837C113.469 87.3868 113.476 87.3885 113.484 87.3885C113.491 87.3885 113.498 87.3868 113.504 87.3837Z" fill="#263238"/>
<path d="M117.627 85.648C117.649 85.648 117.67 85.6427 117.69 85.6324C117.71 85.6221 117.726 85.6072 117.739 85.5889C117.761 85.5649 117.774 85.5332 117.774 85.5003C117.774 85.4675 117.761 85.4358 117.739 85.4118C117.575 85.2989 117.387 85.2266 117.19 85.2009C116.992 85.1752 116.792 85.1969 116.605 85.2641C116.574 85.2772 116.549 85.3014 116.535 85.332C116.52 85.3625 116.518 85.3973 116.528 85.4295C116.534 85.4453 116.543 85.4597 116.555 85.4719C116.566 85.4841 116.58 85.4938 116.596 85.5004C116.611 85.507 116.628 85.5105 116.644 85.5104C116.661 85.5104 116.678 85.507 116.693 85.5003C116.841 85.4462 116.999 85.4293 117.155 85.4509C117.31 85.4725 117.458 85.5321 117.585 85.6244L117.627 85.648Z" fill="#263238"/>
<path d="M114.768 87.4435L115.258 87.1836C115.258 87.1836 115.052 87.6384 114.768 87.4435Z" fill="#263238"/>
<path d="M108.023 112.289L107.681 113.258C107.634 113.335 107.722 113.412 107.846 113.412H118.985C119.085 113.412 119.168 113.364 119.18 113.299L119.339 112.331C119.339 112.266 119.274 112.207 119.162 112.207H108.207C108.171 112.204 108.136 112.21 108.104 112.224C108.072 112.239 108.044 112.261 108.023 112.289Z" fill="#00236F"/>
<path opacity="0.2" d="M108.023 112.289L107.681 113.258C107.634 113.335 107.722 113.412 107.846 113.412H118.985C119.085 113.412 119.168 113.364 119.18 113.299L119.339 112.331C119.339 112.266 119.274 112.207 119.162 112.207H108.207C108.171 112.204 108.136 112.21 108.104 112.224C108.072 112.239 108.044 112.261 108.023 112.289Z" fill="white"/>
<path d="M109.447 113.512H109.151C109.092 113.512 109.051 113.482 109.057 113.447L109.281 112.189C109.281 112.154 109.34 112.124 109.399 112.124H109.695C109.754 112.124 109.795 112.154 109.789 112.189L109.565 113.447C109.559 113.482 109.506 113.512 109.447 113.512Z" fill="#00236F"/>
<path opacity="0.4" d="M109.447 113.512H109.151C109.092 113.512 109.051 113.482 109.057 113.447L109.281 112.189C109.281 112.154 109.34 112.124 109.399 112.124H109.695C109.754 112.124 109.795 112.154 109.789 112.189L109.565 113.447C109.559 113.482 109.506 113.512 109.447 113.512Z" fill="black"/>
<path d="M118.152 113.512H117.857C117.798 113.512 117.756 113.482 117.762 113.447L117.987 112.189C117.987 112.154 118.046 112.124 118.105 112.124H118.4C118.459 112.124 118.501 112.154 118.495 112.189L118.27 113.447C118.264 113.482 118.211 113.512 118.152 113.512Z" fill="#00236F"/>
<path opacity="0.4" d="M118.152 113.512H117.857C117.798 113.512 117.756 113.482 117.762 113.447L117.987 112.189C117.987 112.154 118.046 112.124 118.105 112.124H118.4C118.459 112.124 118.501 112.154 118.495 112.189L118.27 113.447C118.264 113.482 118.211 113.512 118.152 113.512Z" fill="black"/>
<path d="M113.817 113.512H113.522C113.463 113.512 113.421 113.482 113.427 113.447L113.652 112.189C113.652 112.154 113.711 112.124 113.77 112.124H114.065C114.124 112.124 114.166 112.154 114.16 112.189L113.935 113.447C113.929 113.482 113.876 113.512 113.817 113.512Z" fill="#00236F"/>
<path opacity="0.4" d="M113.817 113.512H113.522C113.463 113.512 113.421 113.482 113.427 113.447L113.652 112.189C113.652 112.154 113.711 112.124 113.77 112.124H114.065C114.124 112.124 114.166 112.154 114.16 112.189L113.935 113.447C113.929 113.482 113.876 113.512 113.817 113.512Z" fill="black"/>
<path d="M108.531 100.378C108.224 102.149 107.876 103.974 107.521 105.77C107.35 106.667 107.155 107.542 106.966 108.457L106.689 109.798L106.565 110.388C106.55 110.43 106.55 110.476 106.565 110.518C106.661 110.767 106.815 110.99 107.013 111.168C107.288 111.436 107.589 111.675 107.911 111.882C108.635 112.344 109.391 112.752 110.173 113.105C110.97 113.477 111.797 113.82 112.636 114.133C113.475 114.446 114.331 114.723 115.175 115.03L114.868 116.347C113.015 116.044 111.191 115.581 109.417 114.965C108.497 114.65 107.605 114.254 106.754 113.784C106.291 113.526 105.854 113.226 105.448 112.886C104.931 112.478 104.524 111.946 104.267 111.339C104.123 110.963 104.067 110.559 104.102 110.158C104.131 109.904 104.143 109.851 104.161 109.727L104.214 109.384L104.421 108.032C104.568 107.128 104.698 106.225 104.858 105.321C105.159 103.52 105.448 101.718 105.82 99.9229L108.531 100.378Z" fill="#FF8B7B"/>
<path d="M107.327 96.7624C106.222 97.0932 104.663 100.826 104.663 100.826L108.207 104.73C108.207 104.73 110.427 100.714 110.073 99.3138C109.719 97.9141 108.591 96.3844 107.327 96.7624Z" fill="#00236F"/>
</g>
<path opacity="0.3" d="M100.971 50.6784H143.305C143.699 50.6723 144.077 50.5194 144.364 50.2496C144.652 49.9798 144.828 49.6125 144.859 49.2197C144.874 49.0329 144.851 48.8449 144.789 48.6679C144.728 48.4908 144.63 48.3286 144.502 48.1917C144.374 48.0547 144.219 47.9462 144.046 47.873C143.874 47.7998 143.688 47.7637 143.5 47.7668H101.172C100.779 47.7727 100.401 47.9246 100.113 48.193C99.8248 48.4615 99.6467 48.8273 99.6131 49.2197C99.5974 49.4067 99.6211 49.5949 99.6824 49.7723C99.7438 49.9497 99.8416 50.1123 99.9695 50.2496C100.097 50.387 100.253 50.4961 100.425 50.5699C100.598 50.6438 100.784 50.6807 100.971 50.6784Z" fill="#00236F"/>
<path opacity="0.3" d="M112.665 57.0808H142.851C143.245 57.0734 143.623 56.9203 143.91 56.6509C144.198 56.3815 144.376 56.0149 144.41 55.622C144.426 55.4352 144.402 55.2473 144.341 55.0702C144.279 54.8931 144.181 54.7309 144.053 54.594C143.925 54.4571 143.77 54.3486 143.597 54.2754C143.425 54.2022 143.239 54.166 143.052 54.1691H112.866C112.472 54.175 112.095 54.3269 111.807 54.5954C111.519 54.8638 111.341 55.2297 111.307 55.622C111.291 55.809 111.315 55.9973 111.376 56.1747C111.438 56.352 111.535 56.5146 111.663 56.652C111.791 56.7893 111.946 56.8984 112.119 56.9723C112.292 57.0461 112.478 57.0831 112.665 57.0808Z" fill="#00236F"/>
<path d="M119.717 44.2711H143.731C144.124 44.2664 144.502 44.1147 144.789 43.8459C145.077 43.5771 145.253 43.2105 145.284 42.8182C145.3 42.6316 145.276 42.4439 145.215 42.2669C145.154 42.09 145.057 41.9277 144.93 41.7904C144.802 41.6532 144.648 41.5439 144.476 41.4697C144.304 41.3955 144.119 41.3579 143.932 41.3594H119.918C119.524 41.3656 119.146 41.5185 118.859 41.7883C118.572 42.0581 118.395 42.4253 118.365 42.8182C118.349 43.0044 118.372 43.1919 118.433 43.3686C118.495 43.5452 118.592 43.7072 118.719 43.844C118.847 43.9808 119.001 44.0895 119.173 44.163C119.345 44.2366 119.53 44.2734 119.717 44.2711Z" fill="white"/>
<path opacity="0.3" d="M119.77 144.218H136.898C137.085 144.215 137.271 144.251 137.444 144.324C137.616 144.397 137.771 144.506 137.899 144.643C138.027 144.78 138.125 144.942 138.187 145.119C138.248 145.296 138.272 145.484 138.256 145.671C138.225 146.065 138.048 146.433 137.76 146.703C137.471 146.973 137.092 147.125 136.697 147.13H119.57C119.382 147.132 119.196 147.095 119.023 147.021C118.851 146.947 118.696 146.838 118.568 146.701C118.44 146.563 118.342 146.401 118.281 146.223C118.219 146.046 118.196 145.858 118.211 145.671C118.244 145.278 118.421 144.911 118.71 144.643C118.998 144.374 119.376 144.223 119.77 144.218Z" fill="#00236F"/>
<path opacity="0.3" d="M96.5775 144.218H113.705C113.892 144.215 114.078 144.251 114.251 144.324C114.423 144.397 114.579 144.506 114.707 144.643C114.835 144.78 114.932 144.942 114.994 145.119C115.055 145.296 115.079 145.484 115.063 145.671C115.03 146.064 114.852 146.43 114.564 146.7C114.276 146.969 113.898 147.122 113.504 147.13H96.3767C96.1891 147.132 96.003 147.095 95.8304 147.021C95.6579 146.947 95.5027 146.838 95.3748 146.701C95.2469 146.563 95.1491 146.401 95.0877 146.223C95.0263 146.046 95.0027 145.858 95.0184 145.671C95.0494 145.278 95.2267 144.91 95.5154 144.641C95.804 144.372 96.183 144.221 96.5775 144.218Z" fill="#00236F"/>
<path opacity="0.3" d="M107.137 137.816H137.323C137.51 137.812 137.696 137.849 137.868 137.922C138.041 137.995 138.196 138.104 138.324 138.24C138.452 138.377 138.55 138.54 138.612 138.717C138.673 138.894 138.697 139.082 138.681 139.268C138.65 139.661 138.474 140.029 138.187 140.298C137.899 140.568 137.522 140.721 137.128 140.727H106.936C106.749 140.73 106.563 140.693 106.391 140.619C106.218 140.545 106.064 140.436 105.936 140.298C105.809 140.161 105.711 139.998 105.651 139.821C105.59 139.643 105.567 139.455 105.584 139.268C105.615 138.876 105.791 138.51 106.079 138.241C106.366 137.972 106.744 137.82 107.137 137.816Z" fill="#00236F"/>
<path d="M103.145 131.407H137.754C137.941 131.405 138.127 131.442 138.299 131.516C138.472 131.59 138.627 131.699 138.754 131.836C138.881 131.974 138.979 132.137 139.039 132.314C139.1 132.491 139.123 132.679 139.106 132.866C139.075 133.258 138.899 133.625 138.611 133.894C138.324 134.163 137.946 134.314 137.553 134.319H102.962C102.774 134.322 102.588 134.286 102.416 134.213C102.243 134.14 102.088 134.031 101.96 133.894C101.832 133.757 101.734 133.595 101.673 133.418C101.611 133.241 101.588 133.053 101.603 132.866C101.634 132.475 101.809 132.11 102.093 131.84C102.378 131.571 102.753 131.416 103.145 131.407Z" fill="white"/>
<path opacity="0.3" d="M175.08 100.791H143.542C143.148 100.797 142.77 100.95 142.483 101.22C142.196 101.49 142.019 101.857 141.989 102.25C141.973 102.436 141.996 102.624 142.057 102.8C142.119 102.977 142.216 103.139 142.343 103.276C142.471 103.412 142.625 103.521 142.797 103.595C142.969 103.668 143.154 103.705 143.341 103.703H174.879C175.272 103.698 175.65 103.546 175.937 103.278C176.225 103.009 176.401 102.642 176.432 102.25C176.449 102.063 176.426 101.875 176.365 101.698C176.305 101.52 176.207 101.358 176.08 101.22C175.952 101.083 175.798 100.974 175.625 100.9C175.453 100.826 175.267 100.789 175.08 100.791Z" fill="#00236F"/>
<path opacity="0.3" d="M158.862 94.3888H143.979C143.585 94.3949 143.207 94.5478 142.92 94.8176C142.633 95.0874 142.456 95.4547 142.426 95.8475C142.41 96.0343 142.434 96.2223 142.495 96.3994C142.556 96.5764 142.654 96.7386 142.782 96.8756C142.91 97.0125 143.066 97.121 143.238 97.1942C143.411 97.2674 143.597 97.3035 143.784 97.3004H158.661C159.055 97.2945 159.432 97.1426 159.72 96.8742C160.009 96.6058 160.187 96.2399 160.22 95.8475C160.236 95.6605 160.212 95.4723 160.151 95.2949C160.09 95.1175 159.992 94.9549 159.864 94.8176C159.736 94.6802 159.581 94.5711 159.408 94.4973C159.236 94.4234 159.05 94.3865 158.862 94.3888Z" fill="#00236F"/>
<path d="M167.573 87.9748H144.422C144.028 87.9807 143.651 88.1326 143.362 88.401C143.074 88.6695 142.896 89.0353 142.863 89.4277C142.847 89.6147 142.871 89.8029 142.932 89.9803C142.993 90.1577 143.091 90.3203 143.219 90.4576C143.347 90.595 143.502 90.7041 143.675 90.7779C143.847 90.8518 144.033 90.8887 144.221 90.8864H167.378C167.773 90.8816 168.151 90.7292 168.439 90.4591C168.726 90.1891 168.902 89.821 168.932 89.4277C168.947 89.2409 168.924 89.0529 168.862 88.8759C168.801 88.6988 168.703 88.5366 168.575 88.3997C168.447 88.2628 168.292 88.1542 168.119 88.081C167.947 88.0078 167.761 87.9717 167.573 87.9748Z" fill="white"/>
<path opacity="0.3" d="M186.301 94.3888H165.158C164.763 94.3961 164.386 94.5493 164.098 94.8187C163.81 95.0881 163.632 95.4546 163.598 95.8475C163.583 96.0343 163.606 96.2223 163.668 96.3994C163.729 96.5764 163.827 96.7386 163.955 96.8756C164.083 97.0125 164.238 97.121 164.411 97.1942C164.583 97.2674 164.769 97.3035 164.957 97.3004H186.1C186.494 97.2945 186.871 97.1426 187.16 96.8742C187.448 96.6058 187.626 96.2399 187.659 95.8475C187.675 95.6605 187.651 95.4723 187.59 95.2949C187.529 95.1175 187.431 94.9549 187.303 94.8176C187.175 94.6802 187.02 94.5711 186.847 94.4973C186.675 94.4234 186.489 94.3865 186.301 94.3888Z" fill="#00236F"/>
<path opacity="0.3" d="M91.2207 33.9944H107.037L106.198 19.9795L91.2207 33.9944Z" fill="#00236F"/>
<path d="M91.2207 33.9944L108.153 31.9686L106.198 19.9795L91.2207 33.9944Z" fill="#00236F"/>
<path d="M137.87 98.0341C144.506 82.0144 136.898 63.6486 120.879 57.013C104.859 50.3775 86.4931 57.9848 79.8576 74.0045C73.222 90.0242 80.8293 108.39 96.849 115.026C112.869 121.661 131.234 114.054 137.87 98.0341Z" fill="#00236F"/>
<path d="M108.862 115.762C125.288 115.762 138.605 102.446 138.605 86.0198C138.605 69.5935 125.288 56.2773 108.862 56.2773C92.4358 56.2773 79.1196 69.5935 79.1196 86.0198C79.1196 102.446 92.4358 115.762 108.862 115.762Z" fill="white"/>
<mask id="mask3_150_5370" style="mask-type:luminance" maskUnits="userSpaceOnUse" x="79" y="56" width="60" height="60">
<path d="M108.862 115.762C125.288 115.762 138.605 102.446 138.605 86.0198C138.605 69.5935 125.288 56.2773 108.862 56.2773C92.4358 56.2773 79.1196 69.5935 79.1196 86.0198C79.1196 102.446 92.4358 115.762 108.862 115.762Z" fill="white"/>
</mask>
<g mask="url(#mask3_150_5370)">
<path d="M121.772 92.8652C122.103 95.2985 122.363 97.7436 122.652 100.183L123.456 107.465L123.562 108.339L123.686 109.124L123.857 109.939L124.064 110.772C124.371 111.888 124.72 113.022 125.109 114.156C125.865 116.43 126.751 118.71 127.619 120.978L125.588 122.076C124.194 119.977 122.935 117.791 121.82 115.532C121.27 114.387 120.745 113.223 120.296 111.989L119.965 111.056L119.67 110.081C119.581 109.744 119.505 109.396 119.422 109.054L119.239 108.109C118.784 105.64 118.412 103.207 118.058 100.762C117.703 98.3164 117.39 95.8714 117.13 93.4145L121.772 92.8652Z" fill="#FF8B7B"/>
<path d="M120.302 87.7209C122.186 88.1993 123.503 95.9538 123.503 95.9538L116.304 100.85C116.304 100.85 113.351 91.6602 114.786 89.5931C116.298 87.4374 117.556 87.024 120.302 87.7209Z" fill="#00236F"/>
<path opacity="0.2" d="M120.137 89.4512L121.584 97.2648L118.666 99.2433L120.137 89.4512Z" fill="black"/>
<path d="M98.3672 67.7467C95.2371 68.2014 89.6323 83.3502 100.942 90.4197C112.252 97.4891 119.682 89.457 119.682 89.457C119.682 89.457 112.565 81.6316 113.185 76.5288C113.805 71.4261 117.461 64.9945 108.886 62.8506C102.809 61.3328 94.9358 62.7975 98.3672 67.7467Z" fill="#263238"/>
<path d="M120.302 87.7208C120.302 87.7208 122.481 88.4886 118.123 115.302H99.5601C99.8731 107.748 99.8791 103.094 96.2705 87.5909C98.8676 87.0516 101.501 86.7042 104.149 86.5514C106.955 86.3474 109.771 86.3474 112.577 86.5514C116.197 86.8822 120.302 87.7208 120.302 87.7208Z" fill="#00236F"/>
<path opacity="0.2" d="M97.8298 93.7266C99.513 94.1459 101.066 95.9767 100.877 99.355C100.775 100.89 100.238 102.365 99.3299 103.607C99.0346 101.009 98.5326 97.9966 97.7471 94.1577L97.8298 93.7266Z" fill="black"/>
<path d="M111.603 92.4927C111.603 92.4927 108.561 94.9968 108.561 97.6604C106.033 95.8118 102.626 90.7681 102.265 87.5435C102.254 87.4134 102.269 87.2824 102.31 87.1583C102.35 87.0342 102.416 86.9196 102.502 86.8214C102.588 86.7232 102.693 86.6434 102.811 86.5868C102.928 86.5303 103.056 86.4981 103.187 86.4922C103.413 86.4797 103.638 86.4501 103.86 86.4036C103.955 86.3834 104.053 86.3852 104.147 86.4087C104.241 86.4322 104.329 86.477 104.403 86.5394L111.603 92.4927Z" fill="#FAFAFA"/>
<path d="M111.603 92.4928C112.489 93.0203 113.245 93.7408 113.814 94.6007C114.384 95.4606 114.752 96.4379 114.892 97.4598C117.449 95.5876 116.144 89.9887 114.721 87.2483C114.609 87.035 114.447 86.8524 114.248 86.7164C114.049 86.5805 113.82 86.4955 113.581 86.4688C113.203 86.4215 112.92 86.3743 112.731 86.3329C112.696 86.3262 112.661 86.3266 112.627 86.3341C112.593 86.3416 112.561 86.356 112.532 86.3765C112.504 86.397 112.48 86.4231 112.463 86.4532C112.445 86.4833 112.434 86.5168 112.429 86.5514L111.603 92.4928Z" fill="#FAFAFA"/>
<path d="M104.988 77.0605C105.519 79.7714 106.051 84.7383 104.149 86.5514C106.209 89.0129 108.744 91.0337 111.602 92.4928C115.364 89.4926 112.577 86.5514 112.577 86.5514C109.553 85.8309 109.624 83.5985 110.161 81.4782L104.988 77.0605Z" fill="#FF8B7B"/>
<path opacity="0.2" d="M107.096 78.8613L110.155 81.4777C110.026 81.9674 109.939 82.4673 109.896 82.9719C108.744 82.8065 106.943 81.8202 106.677 80.5622C106.674 79.9694 106.818 79.3851 107.096 78.8613Z" fill="black"/>
<path d="M100.44 72.7081C101.692 77.0667 102.129 78.933 104.87 80.7107C109.004 83.3743 114.065 80.882 114.136 76.234C114.201 72.0525 112.14 65.6032 107.427 64.8295C106.388 64.649 105.319 64.7373 104.323 65.0858C103.328 65.4344 102.437 66.0317 101.737 66.8211C101.037 67.6104 100.551 68.5657 100.324 69.596C100.097 70.6264 100.137 71.6976 100.44 72.7081Z" fill="#FF8B7B"/>
<path d="M101.964 76.6349C104.592 73.9536 104.462 70.6462 103.682 69.6127C106.08 69.4119 112.217 67.8941 111.053 65.573C109.89 63.252 100.097 61.9881 99.1643 67.9354C96.1228 70.6226 98.5442 76.0266 101.964 76.6349Z" fill="#263238"/>
<path d="M107.746 72.3122C107.828 72.6725 108.082 72.9028 108.336 72.8673C108.59 72.8319 108.697 72.4835 108.62 72.1232C108.543 71.7629 108.283 71.5326 108.029 71.568C107.775 71.6035 107.669 71.9519 107.746 72.3122Z" fill="#263238"/>
<path d="M111.815 71.4381C111.898 71.7984 112.152 72.0287 112.406 71.9933C112.66 71.9579 112.766 71.6094 112.683 71.2492C112.601 70.8889 112.347 70.6586 112.093 70.6881C111.839 70.7176 111.738 71.0484 111.815 71.4381Z" fill="#263238"/>
<path d="M112.004 70.7056L112.813 70.2627C112.813 70.2627 112.512 71.0364 112.004 70.7056Z" fill="#263238"/>
<path d="M110.705 72.3359C111.201 73.0829 111.797 73.7584 112.476 74.344C112.322 74.5158 112.133 74.652 111.92 74.7428C111.708 74.8336 111.479 74.8769 111.248 74.8696L110.705 72.3359Z" fill="#FF5652"/>
<path d="M109.642 76.718C109.824 76.7057 110.006 76.68 110.185 76.6412C110.213 76.6342 110.237 76.6168 110.252 76.5927C110.268 76.5685 110.273 76.5394 110.268 76.5113C110.261 76.4835 110.243 76.4595 110.219 76.4441C110.195 76.4288 110.166 76.4232 110.138 76.4286C109.692 76.5368 109.228 76.5398 108.781 76.4373C108.334 76.3348 107.917 76.1296 107.563 75.838C107.542 75.8185 107.515 75.8076 107.486 75.8076C107.458 75.8076 107.43 75.8185 107.409 75.838C107.399 75.8479 107.391 75.8598 107.385 75.873C107.379 75.8862 107.376 75.9004 107.376 75.9148C107.376 75.9291 107.379 75.9433 107.385 75.9565C107.391 75.9697 107.399 75.9816 107.409 75.9916C107.714 76.2551 108.069 76.4551 108.452 76.5798C108.836 76.7045 109.24 76.7515 109.642 76.718Z" fill="#263238"/>
<path d="M100.151 77.0542C100.394 77.4134 100.706 77.7209 101.069 77.9591C101.432 78.1973 101.838 78.3614 102.265 78.4421C103.411 78.6548 103.877 77.6094 103.446 76.5818C103.08 75.6604 102.046 74.4438 100.942 74.6918C100.704 74.7557 100.485 74.8776 100.305 75.0466C100.125 75.2156 99.9902 75.4266 99.9119 75.6605C99.8335 75.8945 99.8143 76.1442 99.8559 76.3874C99.8976 76.6306 99.9988 76.8597 100.151 77.0542Z" fill="#FF8B7B"/>
<path d="M105.755 71.5202C105.8 71.5147 105.842 71.4952 105.875 71.4644C105.908 71.4336 105.93 71.3932 105.939 71.3489C106.045 71.0117 106.22 70.7001 106.453 70.4338C106.686 70.1675 106.971 69.9522 107.291 69.8016C107.318 69.7901 107.341 69.7734 107.361 69.7525C107.381 69.7315 107.396 69.7068 107.406 69.6797C107.416 69.6526 107.421 69.6238 107.419 69.595C107.418 69.5662 107.41 69.538 107.397 69.5122C107.385 69.4862 107.368 69.4629 107.347 69.4437C107.326 69.4245 107.301 69.4098 107.274 69.4004C107.247 69.391 107.218 69.3872 107.19 69.3892C107.161 69.3911 107.133 69.3988 107.108 69.4118C106.724 69.5897 106.384 69.8478 106.109 70.1688C105.833 70.4897 105.63 70.866 105.513 71.2721C105.508 71.2997 105.509 71.328 105.514 71.3554C105.52 71.3828 105.532 71.4087 105.547 71.4318C105.563 71.4548 105.584 71.4745 105.607 71.4897C105.631 71.5048 105.657 71.5152 105.685 71.5202C105.708 71.5262 105.732 71.5262 105.755 71.5202Z" fill="#263238"/>
<path d="M112.595 68.5258C112.643 68.5314 112.692 68.52 112.734 68.4936C112.775 68.4672 112.806 68.4274 112.821 68.3809C112.836 68.3344 112.835 68.284 112.817 68.2383C112.8 68.1927 112.767 68.1544 112.725 68.1301C112.442 67.933 112.117 67.807 111.775 67.7628C111.434 67.7186 111.087 67.7575 110.764 67.8761C110.712 67.8994 110.671 67.9421 110.65 67.9951C110.629 68.048 110.63 68.1071 110.652 68.1596C110.663 68.1859 110.679 68.2096 110.699 68.2296C110.719 68.2495 110.743 68.2651 110.77 68.2756C110.796 68.2861 110.824 68.2911 110.853 68.2905C110.881 68.2898 110.909 68.2835 110.935 68.2718C111.193 68.1819 111.468 68.1548 111.738 68.1928C112.008 68.2308 112.266 68.3328 112.488 68.4903C112.519 68.5133 112.556 68.5258 112.595 68.5258Z" fill="#263238"/>
<path d="M107.929 71.609L108.738 71.166C108.738 71.166 108.461 71.9397 107.929 71.609Z" fill="#263238"/>
<path d="M99.2825 114.215L98.8041 115.874C98.745 116.004 98.8927 116.134 99.1112 116.134H118.211C118.376 116.134 118.518 116.052 118.53 115.951L118.695 114.286C118.695 114.173 118.56 114.073 118.376 114.073H99.6014C99.5404 114.065 99.4784 114.074 99.4221 114.099C99.3659 114.124 99.3176 114.164 99.2825 114.215Z" fill="#00236F"/>
<path opacity="0.2" d="M99.2825 114.215L98.8041 115.874C98.745 116.004 98.8927 116.134 99.1112 116.134H118.211C118.376 116.134 118.518 116.052 118.53 115.951L118.695 114.286C118.695 114.173 118.56 114.073 118.376 114.073H99.6014C99.5404 114.065 99.4784 114.074 99.4221 114.099C99.3659 114.124 99.3176 114.164 99.2825 114.215Z" fill="white"/>
<path d="M101.869 116.324H101.373C101.273 116.324 101.196 116.27 101.202 116.205L101.438 114.05C101.438 113.985 101.533 113.932 101.633 113.932H102.135C102.236 113.932 102.312 113.985 102.306 114.05L102.07 116.205C102.058 116.264 101.964 116.324 101.869 116.324Z" fill="#00236F"/>
<path opacity="0.4" d="M101.869 116.324H101.373C101.273 116.324 101.196 116.27 101.202 116.205L101.438 114.05C101.438 113.985 101.533 113.932 101.633 113.932H102.135C102.236 113.932 102.312 113.985 102.306 114.05L102.07 116.205C102.058 116.264 101.964 116.324 101.869 116.324Z" fill="black"/>
<path d="M116.799 116.324H116.292C116.191 116.324 116.114 116.27 116.126 116.205L116.362 114.05C116.362 113.985 116.457 113.932 116.557 113.932H117.059C117.16 113.932 117.237 113.985 117.231 114.05L116.994 116.205C116.979 116.244 116.952 116.276 116.917 116.297C116.882 116.318 116.84 116.328 116.799 116.324Z" fill="#00236F"/>
<path opacity="0.4" d="M116.799 116.324H116.292C116.191 116.324 116.114 116.27 116.126 116.205L116.362 114.05C116.362 113.985 116.457 113.932 116.557 113.932H117.059C117.16 113.932 117.237 113.985 117.231 114.05L116.994 116.205C116.979 116.244 116.952 116.276 116.917 116.297C116.882 116.318 116.84 116.328 116.799 116.324Z" fill="black"/>
<path d="M109.364 116.324H108.862C108.762 116.324 108.685 116.27 108.691 116.205L108.927 114.05C108.927 113.985 109.021 113.932 109.122 113.932H109.642C109.742 113.932 109.819 113.985 109.813 114.05L109.577 116.205C109.553 116.264 109.464 116.324 109.364 116.324Z" fill="#00236F"/>
<path opacity="0.4" d="M109.364 116.324H108.862C108.762 116.324 108.685 116.27 108.691 116.205L108.927 114.05C108.927 113.985 109.021 113.932 109.122 113.932H109.642C109.742 113.932 109.819 113.985 109.813 114.05L109.577 116.205C109.553 116.264 109.464 116.324 109.364 116.324Z" fill="black"/>
<path d="M98.7511 93.6204C98.5976 95.1914 98.4027 96.7624 98.2314 98.3452L97.6408 103.07C97.4518 104.635 97.2037 106.2 96.9911 107.795L96.6545 110.157L96.5482 110.901C96.5549 111.017 96.5871 111.13 96.6427 111.232C96.8998 111.684 97.2382 112.084 97.6408 112.413C98.1662 112.847 98.7229 113.242 99.3063 113.594C100.58 114.37 101.904 115.061 103.269 115.661C104.663 116.293 106.098 116.843 107.557 117.392C109.016 117.941 110.51 118.443 111.957 118.922L111.437 121.178C108.239 120.662 105.088 119.884 102.017 118.851C100.428 118.331 98.8833 117.683 97.3986 116.914C96.6037 116.5 95.845 116.02 95.1307 115.478C94.2742 114.854 93.5513 114.065 93.0046 113.157C92.6825 112.563 92.4818 111.911 92.414 111.238C92.414 111.055 92.3845 110.872 92.414 110.689C92.4435 110.506 92.414 110.275 92.4435 110.216L92.4967 109.626L92.6975 107.263C92.8451 105.692 92.9573 104.115 93.1286 102.538L93.607 97.8136C93.796 96.2427 93.9555 94.6717 94.1622 93.0889L98.7511 93.6204Z" fill="#FF8B7B"/>
<path d="M96.2706 87.5908C94.4102 88.1814 92.1777 94.5599 92.1777 94.5599L98.6743 101.257C98.6743 101.257 102.011 94.3709 101.226 91.9672C100.428 89.463 98.4203 86.9412 96.2706 87.5908Z" fill="#00236F"/>
</g>
<path opacity="0.2" d="M80.4187 93.6798C78.9034 88.0552 79.0901 82.1075 80.955 76.589C82.82 71.0705 86.2795 66.2288 90.896 62.6764C95.5125 59.1239 101.079 57.0202 106.891 56.6312C112.703 56.2422 118.5 57.5854 123.549 60.4909C128.598 63.3965 132.671 67.7339 135.255 72.9547C137.839 78.1755 138.817 84.0452 138.064 89.8215C137.312 95.5979 134.864 101.022 131.03 105.407C127.195 109.792 122.146 112.941 116.522 114.457C112.787 115.464 108.891 115.724 105.055 115.225C101.219 114.726 97.5194 113.475 94.1669 111.546C90.8143 109.617 87.8747 107.046 85.5157 103.98C83.1568 100.915 81.4248 97.4147 80.4187 93.6798Z" fill="#00236F"/>
<path opacity="0.2" d="M130.206 65.7208L105.95 115.331C108.031 115.543 110.128 115.526 112.205 115.278L134.016 70.6878C132.928 68.8999 131.651 67.2346 130.206 65.7208ZM137.293 78.3478L137.134 77.7572L119.717 113.382C126.434 110.715 131.937 105.672 135.177 99.2122C138.418 92.7524 139.171 85.3267 137.293 78.3478ZM101.19 57.5765C96.049 58.9623 91.3796 61.7157 87.6785 65.5437C83.9774 69.3718 81.3831 74.1314 80.1714 79.3163C78.9597 84.5012 79.1759 89.9176 80.7971 94.9895C82.4182 100.061 85.3838 104.599 89.3782 108.12L114.366 57.0745C109.993 56.2389 105.487 56.4106 101.19 57.5765Z" fill="white"/>
<path d="M75.7176 82.8189L75.127 82.7599C75.2214 81.75 75.3691 80.7341 75.5581 79.7419L76.1487 79.8541C75.9774 80.8286 75.818 81.8267 75.7176 82.8189ZM76.8633 76.8244L76.2727 76.659C77.0506 74.0282 78.1411 71.5001 79.521 69.1289L80.0348 69.4242C78.6858 71.7554 77.6211 74.2398 76.8633 76.8244Z" fill="#00236F"/>
<path d="M139.561 77.7394C137.925 71.6676 134.526 66.2172 129.792 62.0774C125.059 57.9375 119.204 55.2942 112.968 54.4815C106.732 53.6688 100.396 54.7233 94.7594 57.5117C89.123 60.3 84.4398 64.697 81.3021 70.1467C78.1645 75.5963 76.7131 81.854 77.1315 88.1285C77.55 94.403 79.8194 100.412 83.653 105.397C87.4866 110.382 92.7121 114.118 98.6689 116.133C104.626 118.149 111.046 118.352 117.119 116.719C121.152 115.634 124.932 113.765 128.243 111.218C131.554 108.672 134.331 105.498 136.415 101.879C138.5 98.2588 139.85 94.2638 140.39 90.122C140.93 85.9801 140.648 81.7724 139.561 77.7394ZM80.419 93.6855C78.9038 88.0609 79.0905 82.1133 80.9554 76.5947C82.8203 71.0762 86.2798 66.2346 90.8964 62.6821C95.5129 59.1297 101.079 57.0259 106.891 56.6369C112.703 56.2479 118.5 57.5911 123.549 60.4966C128.598 63.4022 132.672 67.7396 135.256 72.9604C137.839 78.1812 138.817 84.0509 138.065 89.8273C137.313 95.6037 134.864 101.027 131.03 105.412C127.195 109.797 122.147 112.947 116.522 114.463C112.787 115.469 108.89 115.73 105.054 115.23C101.218 114.73 97.5182 113.48 94.1656 111.55C90.813 109.62 87.8734 107.048 85.5147 103.982C83.1561 100.916 81.4245 97.4151 80.419 93.6796V93.6855Z" fill="#00236F"/>
<path d="M80.8913 98.5518C80.8913 99.9043 80.5428 100.081 80.1708 100.123L79.1018 100.406L76.9579 100.997L72.6702 102.131L64.077 104.334C58.3403 105.775 52.5958 107.178 46.8434 108.545L29.5861 112.679L20.9693 114.77C18.099 115.484 15.2169 116.146 12.3761 116.973C12.088 117.057 11.786 117.084 11.4875 117.052C11.1889 117.02 10.8996 116.929 10.6361 116.785C10.3726 116.641 10.14 116.447 9.95166 116.213C9.76329 115.979 9.62283 115.71 9.53829 115.422C9.45375 115.134 9.42679 114.832 9.45895 114.534C9.49111 114.235 9.58176 113.946 9.72572 113.682C9.86968 113.419 10.0641 113.186 10.298 112.998C10.5318 112.809 10.8005 112.669 11.0886 112.584H11.1831C14.0593 111.876 16.8824 110.996 19.7172 110.175L28.2218 107.653L45.2133 102.538C50.8791 100.826 56.5508 99.1503 62.2284 97.5124L70.7625 95.0614L75.0385 93.8802L77.1764 93.2896L78.2454 92.9943C78.5879 92.8467 78.9659 92.829 79.6628 93.9924C80.482 95.3711 80.9069 96.9482 80.8913 98.5518Z" fill="#00236F"/>
</svg>
