<svg width="60" height="60" viewBox="0 0 60 60" fill="none" xmlns="http://www.w3.org/2000/svg">
<g clip-path="url(#clip0_2051_6491)">
<path d="M30 0C13.4587 0 0 13.4587 0 30C0 46.5412 13.4587 60 30 60C46.5412 60 60 46.5412 60 30C60 13.4587 46.5412 0 30 0ZM30 58.75C14.1475 58.75 1.25 45.8525 1.25 30C1.25 14.1475 14.1475 1.25 30 1.25C45.8525 1.25 58.75 14.1475 58.75 30C58.75 45.8525 45.8525 58.75 30 58.75Z" fill="#00236F"/>
<path d="M20.0558 29.8169C20.2999 29.5728 20.2999 29.1771 20.0558 28.933C19.8117 28.689 19.416 28.689 19.1719 28.9331C18.9278 29.1771 18.9278 29.5729 19.1719 29.8169C19.416 30.061 19.8117 30.061 20.0558 29.8169Z" fill="#00236F"/>
<path d="M48.7825 23.1875L43.9212 28.05L36.8512 20.9788L40.3862 17.4438L41.7112 16.1188C41.8251 16.0009 41.8881 15.843 41.8866 15.6791C41.8852 15.5153 41.8195 15.3585 41.7036 15.2426C41.5877 15.1267 41.431 15.061 41.2671 15.0596C41.1032 15.0582 40.9453 15.1212 40.8275 15.235L35.5237 20.5375L35.5225 20.5388L31.9875 24.0738C31.9293 24.1318 31.8831 24.2008 31.8516 24.2767C31.8201 24.3527 31.8038 24.4341 31.8038 24.5163C31.8038 24.5985 31.8201 24.6799 31.8516 24.7558C31.8831 24.8317 31.9293 24.9007 31.9875 24.9588L32.8712 25.8425L32.21 26.5038L30.2062 26.2113C30.1098 26.1992 30.012 26.2089 29.9198 26.2396C29.8277 26.2703 29.7436 26.3213 29.6737 26.3888L28.8937 27.1688L27.5675 25.8438L28.01 25.4013C28.0682 25.3432 28.1143 25.2742 28.1458 25.1983C28.1774 25.1224 28.1936 25.041 28.1936 24.9588C28.1936 24.8766 28.1774 24.7952 28.1458 24.7192C28.1143 24.6433 28.0682 24.5743 28.01 24.5163L24.475 20.9813L24.4737 20.98L19.17 15.6775C19.0521 15.5637 18.8942 15.5007 18.7303 15.5021C18.5665 15.5035 18.4097 15.5692 18.2938 15.6851C18.1779 15.801 18.1122 15.9578 18.1108 16.1216C18.1094 16.2855 18.1724 16.4434 18.2862 16.5613L19.6112 17.8863L23.1462 21.4213L16.0762 28.4925L11.215 23.6313C11.0971 23.5174 10.9392 23.4544 10.7753 23.4558C10.6115 23.4573 10.4547 23.523 10.3388 23.6389C10.2229 23.7548 10.1572 23.9115 10.1558 24.0754C10.1544 24.2393 10.2174 24.3971 10.3312 24.515L11.6562 25.84L19.1687 33.3525C19.2266 33.411 19.2955 33.4575 19.3715 33.4892C19.4474 33.5209 19.5289 33.5372 19.6112 33.5372C19.6935 33.5372 19.775 33.5209 19.8509 33.4892C19.9269 33.4575 19.9958 33.411 20.0537 33.3525L20.4962 32.91L21.4562 33.87C21.2894 34.2202 21.2351 34.6134 21.3007 34.9956C21.3662 35.3779 21.5485 35.7305 21.8225 36.005L21.38 36.4475C21.0288 36.7993 20.8315 37.2761 20.8315 37.7731C20.8315 38.2702 21.0288 38.747 21.38 39.0988C21.7125 39.4313 22.1512 39.6175 22.6187 39.64C22.6425 40.0863 22.8075 40.5263 23.1475 40.8663C23.49 41.2088 23.935 41.375 24.3837 41.3975C24.405 41.8463 24.5725 42.2913 24.915 42.6338C25.2487 42.9675 25.6862 43.1538 26.1537 43.175C26.1775 43.6213 26.3425 44.0613 26.6825 44.4013C27.0475 44.7675 27.5287 44.9488 28.0087 44.9488C28.4887 44.9488 28.9687 44.7663 29.335 44.4013L29.7775 43.9588C30.1312 44.3125 30.6025 44.5075 31.1037 44.5075C31.3501 44.5083 31.5942 44.4602 31.8218 44.366C32.0495 44.2718 32.2562 44.1334 32.43 43.9588C32.7725 43.6163 32.94 43.1713 32.9612 42.7225C33.4112 42.7013 33.8562 42.5338 34.1987 42.1913C34.5375 41.8513 34.7025 41.41 34.7262 40.965C35.1937 40.9438 35.6325 40.7575 35.965 40.4238C36.3075 40.0813 36.475 39.6363 36.4962 39.1875C36.9604 39.1719 37.4017 38.9822 37.7325 38.6563C38.0837 38.3045 38.2809 37.8277 38.2809 37.3306C38.2809 36.8336 38.0837 36.3568 37.7325 36.005L38.175 35.5625C38.7512 34.9863 38.8737 34.125 38.5412 33.4275L39.5012 32.4675L39.9437 32.91C40.0016 32.9685 40.0705 33.015 40.1465 33.0467C40.2224 33.0784 40.3039 33.0947 40.3862 33.0947C40.4685 33.0947 40.55 33.0784 40.6259 33.0467C40.7019 33.015 40.7708 32.9685 40.8287 32.91L48.3412 25.3975L48.3437 25.3938L49.6675 24.07C49.7271 24.0123 49.7746 23.9432 49.8072 23.8669C49.8399 23.7906 49.857 23.7086 49.8576 23.6256C49.8582 23.5426 49.8423 23.4604 49.8107 23.3836C49.7792 23.3068 49.7327 23.2371 49.6739 23.1785C49.6152 23.1199 49.5453 23.0736 49.4685 23.0423C49.3916 23.011 49.3093 22.9953 49.2263 22.9961C49.1433 22.997 49.0613 23.0143 48.9851 23.0472C48.9089 23.08 48.84 23.1277 48.7825 23.1875ZM16.9625 29.3763L24.0337 22.305L26.6862 24.9575L26.245 25.3988L26.2437 25.4L20.0562 31.5863L19.615 32.0275L16.9625 29.3763ZM22.0837 37.7725C22.0836 37.6904 22.0996 37.609 22.1309 37.5331C22.1622 37.4572 22.2082 37.3882 22.2662 37.33L22.7087 36.8875L23.5925 37.7713L23.15 38.2138C23.0312 38.328 22.8728 38.3918 22.7081 38.3918C22.5433 38.3918 22.385 38.328 22.2662 38.2138C22.2081 38.156 22.162 38.0872 22.1307 38.0115C22.0993 37.9357 22.0834 37.8545 22.0837 37.7725ZM23.8512 39.54C23.8511 39.4579 23.8671 39.3765 23.8984 39.3006C23.9297 39.2247 23.9757 39.1557 24.0337 39.0975L24.4762 38.655L25.36 39.5388L24.9175 39.9813C24.7984 40.0949 24.6402 40.1583 24.4756 40.1583C24.311 40.1583 24.1528 40.0949 24.0337 39.9813C23.9756 39.9235 23.9295 39.8547 23.8982 39.779C23.8668 39.7032 23.8509 39.622 23.8512 39.54ZM25.8012 40.8663L26.2437 40.4238L27.1275 41.3075L26.685 41.75C26.5659 41.8636 26.4077 41.927 26.2431 41.927C26.0785 41.927 25.9203 41.8636 25.8012 41.75C25.684 41.6328 25.6182 41.4739 25.6182 41.3081C25.6182 41.1424 25.684 40.9835 25.8012 40.8663ZM28.4537 43.5175C28.3358 43.6314 28.178 43.6944 28.0141 43.6929C27.8502 43.6915 27.6934 43.6258 27.5776 43.5099C27.4617 43.394 27.396 43.2373 27.3945 43.0734C27.3931 42.9095 27.4561 42.7516 27.57 42.6338L28.0125 42.1913L28.8962 43.075L28.4537 43.5175ZM36.85 37.7725C36.7327 37.8897 36.5738 37.9555 36.4081 37.9555C36.2424 37.9555 36.0834 37.8897 35.9662 37.7725L34.1987 36.005C34.0808 35.8912 33.923 35.8282 33.7591 35.8296C33.5952 35.831 33.4384 35.8967 33.3226 36.0126C33.2067 36.1285 33.141 36.2853 33.1395 36.4491C33.1381 36.613 33.2011 36.7709 33.315 36.8888L35.0825 38.6563C35.1996 38.7735 35.2654 38.9324 35.2654 39.0981C35.2654 39.2639 35.1996 39.4228 35.0825 39.54C34.9637 39.6542 34.8053 39.718 34.6406 39.718C34.4758 39.718 34.3175 39.6542 34.1987 39.54L32.43 37.7725C32.3121 37.6587 32.1542 37.5957 31.9903 37.5971C31.8265 37.5985 31.6697 37.6642 31.5538 37.7801C31.4379 37.896 31.3722 38.0528 31.3708 38.2166C31.3694 38.3805 31.4324 38.5384 31.5462 38.6563L33.3137 40.4238C33.4309 40.5411 33.4967 40.7002 33.4966 40.8661C33.4964 41.0319 33.4304 41.191 33.3131 41.3081C33.1957 41.4253 33.0366 41.4911 32.8708 41.491C32.7049 41.4909 32.5459 41.4249 32.4287 41.3075L30.6612 39.54C30.5433 39.4262 30.3855 39.3632 30.2216 39.3646C30.0577 39.366 29.9009 39.4317 29.7851 39.5476C29.6692 39.6635 29.6035 39.8203 29.602 39.9841C29.6006 40.148 29.6636 40.3059 29.7775 40.4238L31.545 42.1913C31.6621 42.3085 31.7279 42.4674 31.7279 42.6331C31.7279 42.7989 31.6621 42.9578 31.545 43.075C31.4259 43.1886 31.2677 43.252 31.1031 43.252C30.9385 43.252 30.7803 43.1886 30.6612 43.075L30.22 42.6338L28.4525 40.8663L22.7075 35.1225C22.5905 35.0049 22.5249 34.8458 22.5249 34.68C22.5249 34.5142 22.5905 34.3551 22.7075 34.2375C22.7657 34.1795 22.8118 34.1105 22.8433 34.0346C22.8749 33.9586 22.8911 33.8772 22.8911 33.795C22.8911 33.7128 22.8749 33.6314 22.8433 33.5555C22.8118 33.4795 22.7657 33.4106 22.7075 33.3525L21.3812 32.0275L26.685 26.725L28.0112 28.05L24.9175 31.1438C24.8593 31.2018 24.8131 31.2708 24.7816 31.3467C24.7501 31.4227 24.7338 31.5041 24.7338 31.5863C24.7338 31.6685 24.7501 31.7499 24.7816 31.8258C24.8131 31.9017 24.8593 31.9707 24.9175 32.0288L25.155 32.2663C25.6812 32.7925 26.3812 33.0825 27.1262 33.0825C27.4926 33.0834 27.8555 33.0117 28.1941 32.8717C28.5326 32.7316 28.8401 32.5258 29.0987 32.2663L30.6625 30.7025L36.4075 36.4488L36.8487 36.89C36.9069 36.9478 36.9531 37.0165 36.9847 37.0921C37.0163 37.1678 37.0326 37.249 37.0327 37.331C37.0329 37.413 37.0168 37.4942 36.9854 37.57C36.954 37.6458 36.908 37.7146 36.85 37.7725ZM37.2912 32.9113C37.233 32.9693 37.1868 33.0383 37.1553 33.1142C37.1238 33.1902 37.1076 33.2716 37.1076 33.3538C37.1076 33.436 37.1238 33.5174 37.1553 33.5933C37.1868 33.6692 37.233 33.7382 37.2912 33.7963C37.4081 33.9138 37.4738 34.0729 37.4738 34.2388C37.4738 34.4046 37.4081 34.5637 37.2912 34.6813L36.85 35.1225L31.54 29.8113C31.6517 29.6904 31.7108 29.5302 31.7044 29.3657C31.6979 29.2013 31.6264 29.0461 31.5056 28.9344C31.3847 28.8227 31.2245 28.7635 31.06 28.77C30.8956 28.7764 30.7404 28.8479 30.6287 28.9688L28.215 31.3825C27.9583 31.6299 27.6252 31.7828 27.2702 31.8162C26.9153 31.8496 26.5595 31.7615 26.2612 31.5663L30.3362 27.4925L32.3387 27.785C32.4352 27.7988 32.5335 27.7899 32.6259 27.7591C32.7183 27.7283 32.8023 27.6764 32.8712 27.6075L33.755 26.7238L38.6162 31.585L37.2912 32.9113ZM40.3862 31.585L39.945 31.1438L33.7575 24.9575L33.7562 24.9563L33.315 24.515L35.9675 21.8625L43.0387 28.9338L40.3862 31.585Z" fill="#00236F"/>
<path d="M40.8419 29.3618C41.086 29.1178 41.086 28.722 40.8419 28.478C40.5978 28.2339 40.2021 28.2339 39.958 28.478C39.714 28.7221 39.714 29.1178 39.9581 29.3619C40.2021 29.6059 40.5979 29.6059 40.8419 29.3618Z" fill="#00236F"/>
</g>
<defs>
<clipPath id="clip0_2051_6491">
<rect width="60" height="60" fill="white"/>
</clipPath>
</defs>
</svg>
