<svg width="32" height="32" viewBox="0 0 32 32" fill="none" xmlns="http://www.w3.org/2000/svg">
<path d="M27.2532 19.2159L26.1751 12.5317C28.2556 11.8267 29.7577 9.85655 29.7577 7.54086C29.7577 4.63536 27.3939 2.27148 24.4884 2.27148C22.4411 2.27148 20.6641 3.44586 19.7921 5.15561H12.2078C11.3359 3.44586 9.55888 2.27148 7.51156 2.27148C4.606 2.27148 2.24219 4.6353 2.24219 7.54086C2.24219 9.85655 3.74431 11.8267 5.82487 12.5317L4.74675 19.2159C2.08569 19.479 0 21.7299 0 24.4591C0 27.3646 2.36381 29.7285 5.26937 29.7285C7.29237 29.7285 9.05169 28.5819 9.93444 26.9052H22.0656C22.9484 28.582 24.7076 29.7285 26.7306 29.7285C29.6362 29.7285 32 27.3647 32 24.4591C32 21.7299 29.9143 19.479 27.2532 19.2159ZM24.4884 7.5008C23.8356 7.5008 23.3045 6.96967 23.3045 6.31686C23.3045 5.66405 23.8356 5.13292 24.4884 5.13292C25.1413 5.13292 25.6724 5.66405 25.6724 6.31686C25.6724 6.96967 25.1413 7.5008 24.4884 7.5008ZM24.4884 8.5008C25.8547 8.5008 27.0072 9.46455 27.265 10.7799C26.5179 11.4213 25.5479 11.8102 24.4884 11.8102C23.4288 11.8102 22.4589 11.4213 21.7118 10.7799C21.9696 9.46455 23.1221 8.5008 24.4884 8.5008ZM24.4884 3.27148C26.8426 3.27148 28.7577 5.18673 28.7577 7.54086C28.7577 8.41286 28.4944 9.2243 28.0439 9.90086C27.6734 8.97486 26.9558 8.2363 26.0569 7.8343C26.4375 7.44105 26.6724 6.90605 26.6724 6.31686C26.6724 5.11261 25.6927 4.13292 24.4885 4.13292C23.2843 4.13292 22.3046 5.11261 22.3046 6.31686C22.3046 6.90598 22.5395 7.44105 22.92 7.8343C22.0211 8.2363 21.3034 8.97486 20.9329 9.90086C20.4824 9.2243 20.2191 8.41286 20.2191 7.54086C20.219 5.18673 22.1343 3.27148 24.4884 3.27148ZM7.51162 3.27148C9.86575 3.27148 11.781 5.18673 11.781 7.54086C11.781 8.41286 11.5177 9.2243 11.0672 9.90086C10.6967 8.97486 9.97906 8.2363 9.08019 7.8343C9.46075 7.44105 9.69569 6.90605 9.69569 6.31686C9.69569 5.11261 8.71594 4.13292 7.51175 4.13292C6.30756 4.13292 5.32769 5.11261 5.32769 6.31686C5.32769 6.90598 5.56256 7.44105 5.94312 7.8343C5.04425 8.2363 4.32656 8.97486 3.95606 9.90092C3.5055 9.22436 3.24219 8.41292 3.24219 7.54092C3.24219 5.18673 5.15744 3.27148 7.51162 3.27148ZM7.51162 7.5008C6.85881 7.5008 6.32769 6.96967 6.32769 6.31686C6.32769 5.66405 6.85881 5.13292 7.51162 5.13292C8.16444 5.13292 8.69556 5.66405 8.69556 6.31686C8.69556 6.96967 8.16444 7.5008 7.51162 7.5008ZM7.51162 8.5008C8.87794 8.5008 10.0305 9.46455 10.2882 10.7799C9.54106 11.4213 8.57119 11.8102 7.51162 11.8102C6.45206 11.8102 5.48219 11.4213 4.73506 10.7799C4.99275 9.46455 6.14525 8.5008 7.51162 8.5008ZM2.49275 27.6982C2.75044 26.3828 3.903 25.419 5.26937 25.419C6.63569 25.419 7.78819 26.3828 8.04594 27.6982C7.29881 28.3396 6.32894 28.7285 5.26931 28.7285C4.20981 28.7285 3.23994 28.3396 2.49275 27.6982ZM4.08544 23.2351C4.08544 22.5823 4.61656 22.0512 5.26937 22.0512C5.92219 22.0512 6.45331 22.5823 6.45331 23.2351C6.45331 23.8879 5.92219 24.419 5.26937 24.419C4.61656 24.419 4.08544 23.8879 4.08544 23.2351ZM8.82487 26.8191C8.45438 25.8931 7.73669 25.1545 6.83787 24.7525C7.21844 24.3593 7.45337 23.8243 7.45337 23.2351C7.45337 22.0309 6.47362 21.0512 5.26944 21.0512C4.06525 21.0512 3.0855 22.0309 3.0855 23.2351C3.0855 23.8242 3.32037 24.3593 3.70094 24.7525C2.80206 25.1545 2.08438 25.8931 1.71388 26.8192C1.26331 26.1425 1 25.3312 1 24.4591C1 22.105 2.91525 20.1897 5.26937 20.1897C7.62356 20.1897 9.53875 22.105 9.53875 24.4591C9.53875 25.3311 9.27544 26.1425 8.82487 26.8191ZM10.3354 25.9051C10.4668 25.4453 10.5387 24.9606 10.5387 24.4591C10.5387 21.7192 8.43637 19.4619 5.76013 19.2134L6.80088 12.7609C7.0335 12.7924 7.27044 12.8102 7.51162 12.8102C10.4171 12.8102 12.781 10.4464 12.781 7.5408C12.781 7.06142 12.7154 6.5973 12.5949 6.15561H19.4051C19.2846 6.5973 19.2191 7.06142 19.2191 7.5408C19.2191 10.4463 21.5829 12.8102 24.4884 12.8102C24.7296 12.8102 24.9665 12.7924 25.1992 12.7609L26.2399 19.2134C23.5637 19.4619 21.4614 21.7192 21.4614 24.4591C21.4614 24.9606 21.5333 25.4453 21.6647 25.9051H10.3354ZM26.7306 20.1898C29.0848 20.1898 31 22.105 31 24.4592C31 25.3312 30.7367 26.1426 30.2862 26.8192C29.9157 25.8932 29.198 25.1545 28.2992 24.7526C28.6797 24.3594 28.9147 23.8244 28.9147 23.2352C28.9147 22.0309 27.9349 21.0512 26.7307 21.0512C25.5266 21.0512 24.5468 22.0309 24.5468 23.2352C24.5468 23.8243 24.7817 24.3594 25.1623 24.7526C24.2634 25.1546 23.5457 25.8932 23.1752 26.8192C22.7246 26.1427 22.4613 25.3312 22.4613 24.4592C22.4613 22.105 24.3765 20.1898 26.7306 20.1898ZM25.5467 23.2351C25.5467 22.5823 26.0779 22.0512 26.7307 22.0512C27.3835 22.0512 27.9146 22.5823 27.9146 23.2351C27.9146 23.8879 27.3835 24.419 26.7307 24.419C26.0779 24.419 25.5467 23.8879 25.5467 23.2351ZM23.9541 27.6982C24.2118 26.3828 25.3644 25.419 26.7307 25.419C28.097 25.419 29.2496 26.3828 29.5073 27.6982C28.7602 28.3396 27.7903 28.7285 26.7307 28.7285C25.6711 28.7285 24.7012 28.3396 23.9541 27.6982Z" fill="#464646"/>
</svg>
