<svg width="24" height="24" viewBox="0 0 24 24" fill="none" xmlns="http://www.w3.org/2000/svg">
<path d="M16 10C16 7.79 14.21 6 12 6C9.79 6 8 7.79 8 10C8 12.21 9.79 14 12 14C14.21 14 16 12.21 16 10ZM10 10C10 8.9 10.9 8 12 8C13.1 8 14 8.9 14 10C14 11.1 13.1 12 12 12C10.9 12 10 11.1 10 10Z" fill="#464646"/>
<path d="M11.4201 21.8102C11.5901 21.9302 11.8001 22.0002 12.0001 22.0002C12.2001 22.0002 12.4101 21.9402 12.5801 21.8102C12.8801 21.5902 20.0301 16.4402 20.0001 9.99023C20.0001 5.58023 16.4101 1.99023 12.0001 1.99023C7.59009 1.99023 4.00009 5.58023 4.00009 9.99023C3.97009 16.4302 11.1201 21.5902 11.4201 21.8102ZM12.0001 4.00023C15.3101 4.00023 18.0001 6.69023 18.0001 10.0002C18.0201 14.4402 13.6101 18.4302 12.0001 19.7402C10.3901 18.4302 5.98009 14.4502 6.00009 10.0002C6.00009 6.69023 8.69009 4.00023 12.0001 4.00023Z" fill="#464646"/>
</svg>
