<svg width="19" height="19" viewBox="0 0 19 19" fill="none" xmlns="http://www.w3.org/2000/svg">
<path d="M12.6666 7.91667C12.6666 6.16708 11.2495 4.75 9.49992 4.75C7.75034 4.75 6.33325 6.16708 6.33325 7.91667C6.33325 9.66625 7.75034 11.0833 9.49992 11.0833C11.2495 11.0833 12.6666 9.66625 12.6666 7.91667ZM7.91659 7.91667C7.91659 7.04583 8.62909 6.33333 9.49992 6.33333C10.3708 6.33333 11.0833 7.04583 11.0833 7.91667C11.0833 8.7875 10.3708 9.5 9.49992 9.5C8.62909 9.5 7.91659 8.7875 7.91659 7.91667Z" fill="#464646"/>
<path d="M9.04075 17.2663C9.17533 17.3613 9.34158 17.4167 9.49991 17.4167C9.65825 17.4167 9.8245 17.3692 9.95908 17.2663C10.1966 17.0921 15.857 13.015 15.8332 7.90877C15.8332 4.41752 12.9912 1.57544 9.49991 1.57544C6.00866 1.57544 3.16658 4.41752 3.16658 7.90877C3.14283 13.0071 8.80325 17.0921 9.04075 17.2663ZM9.49991 3.16669C12.1203 3.16669 14.2499 5.29627 14.2499 7.91669C14.2657 11.4317 10.7745 14.5904 9.49991 15.6275C8.22533 14.5904 4.73408 11.4396 4.74991 7.91669C4.74991 5.29627 6.8795 3.16669 9.49991 3.16669Z" fill="#464646"/>
</svg>
