<svg width="40" height="40" viewBox="0 0 40 40" fill="none" xmlns="http://www.w3.org/2000/svg">
<path d="M36.25 5.625H27.5C26.883 4.14431 25.8416 2.87937 24.5069 1.98959C23.1723 1.09981 21.6041 0.625 20 0.625C18.3959 0.625 16.8277 1.09981 15.4931 1.98959C14.1584 2.87937 13.117 4.14431 12.5 5.625H3.75C2.9215 5.62599 2.12722 5.95555 1.54139 6.54139C0.955551 7.12722 0.625992 7.9215 0.625 8.75V30C0.625992 30.8285 0.955551 31.6228 1.54139 32.2086C2.12722 32.7944 2.9215 33.124 3.75 33.125H15.5125L15.0956 35.625H15C14.5027 35.625 14.0258 35.8225 13.6742 36.1742C13.3225 36.5258 13.125 37.0027 13.125 37.5V38.75C13.125 38.9158 13.1908 39.0747 13.3081 39.1919C13.4253 39.3092 13.5842 39.375 13.75 39.375H26.25C26.4158 39.375 26.5747 39.3092 26.6919 39.1919C26.8092 39.0747 26.875 38.9158 26.875 38.75V37.5C26.875 37.0027 26.6775 36.5258 26.3258 36.1742C25.9742 35.8225 25.4973 35.625 25 35.625H24.9044L24.4875 33.125H36.25C37.0785 33.124 37.8728 32.7944 38.4586 32.2086C39.0444 31.6228 39.374 30.8285 39.375 30V8.75C39.374 7.9215 39.0444 7.12722 38.4586 6.54139C37.8728 5.95555 37.0785 5.62599 36.25 5.625ZM36.25 6.875C36.7473 6.875 37.2242 7.07254 37.5758 7.42417C37.9275 7.77581 38.125 8.25272 38.125 8.75V26.875H36.875V8.75C36.875 8.58424 36.8092 8.42527 36.6919 8.30806C36.5747 8.19085 36.4158 8.125 36.25 8.125H28.0931C28.0609 7.70388 27.9957 7.28593 27.8981 6.875H36.25ZM11.9069 9.375C11.9697 10.2347 12.1699 11.0787 12.5 11.875H11.25C10.587 11.875 9.95107 12.1384 9.48223 12.6072C9.01339 13.0761 8.75 13.712 8.75 14.375V23.125C8.75 23.788 9.01339 24.4239 9.48223 24.8928C9.95107 25.3616 10.587 25.625 11.25 25.625H28.75C29.413 25.625 30.0489 25.3616 30.5178 24.8928C30.9866 24.4239 31.25 23.788 31.25 23.125V14.375C31.25 13.712 30.9866 13.0761 30.5178 12.6072C30.0489 12.1384 29.413 11.875 28.75 11.875H27.5C27.8307 11.0788 28.0316 10.2348 28.095 9.375H35.625V26.875H4.375V9.375H11.9069ZM26.8356 13.125H28.75C28.9686 13.1264 29.183 13.1857 29.3713 13.2969L20 20.4631L10.6287 13.2969C10.817 13.1857 11.0314 13.1264 11.25 13.125H13.1644C13.8966 14.2744 14.9068 15.2205 16.1016 15.876C17.2964 16.5315 18.6372 16.8751 20 16.8751C21.3628 16.8751 22.7036 16.5315 23.8984 15.876C25.0932 15.2205 26.1034 14.2744 26.8356 13.125ZM16.0138 18.9888L10.1081 23.6287C10.0371 23.4703 10.0002 23.2987 10 23.125V14.3894L16.0138 18.9888ZM17.0394 19.7725L19.6206 21.7463C19.7296 21.8295 19.8629 21.8746 20 21.8746C20.1371 21.8746 20.2704 21.8295 20.3794 21.7463L22.9606 19.7725L28.8125 24.3688C28.7925 24.3688 28.7731 24.375 28.75 24.375H11.25C11.2294 24.375 11.21 24.37 11.1875 24.3688L17.0394 19.7725ZM30 23.125C29.9997 23.2988 29.9629 23.4707 29.8919 23.6294L23.9862 18.9888L30 14.3894V23.125ZM20 1.875C21.3597 1.875 22.689 2.27821 23.8195 3.03365C24.9501 3.78908 25.8313 4.86281 26.3517 6.11905C26.872 7.37529 27.0082 8.75763 26.7429 10.0912C26.4776 11.4249 25.8228 12.6499 24.8614 13.6114C23.8999 14.5728 22.6749 15.2276 21.3412 15.4929C20.0076 15.7582 18.6253 15.622 17.3691 15.1017C16.1128 14.5813 15.0391 13.7001 14.2836 12.5695C13.5282 11.439 13.125 10.1097 13.125 8.75C13.1272 6.9273 13.8522 5.17986 15.141 3.89102C16.4299 2.60217 18.1773 1.87715 20 1.875ZM3.75 6.875H12.1019C12.0043 7.28593 11.9391 7.70388 11.9069 8.125H3.75C3.58424 8.125 3.42527 8.19085 3.30806 8.30806C3.19085 8.42527 3.125 8.58424 3.125 8.75V26.875H1.875V8.75C1.875 8.25272 2.07254 7.77581 2.42417 7.42417C2.77581 7.07254 3.25272 6.875 3.75 6.875ZM25.625 37.5V38.125H14.375V37.5C14.375 37.3342 14.4408 37.1753 14.5581 37.0581C14.6753 36.9408 14.8342 36.875 15 36.875H25C25.1658 36.875 25.3247 36.9408 25.4419 37.0581C25.5592 37.1753 25.625 37.3342 25.625 37.5ZM23.6375 35.625H16.3625L16.7794 33.125H23.2206L23.6375 35.625ZM36.25 31.875H3.75C3.25272 31.875 2.77581 31.6775 2.42417 31.3258C2.07254 30.9742 1.875 30.4973 1.875 30V28.125H38.125V30C38.125 30.4973 37.9275 30.9742 37.5758 31.3258C37.2242 31.6775 36.7473 31.875 36.25 31.875Z" fill="#21006F"/>
<path d="M20 31.25C20.6904 31.25 21.25 30.6904 21.25 30C21.25 29.3096 20.6904 28.75 20 28.75C19.3096 28.75 18.75 29.3096 18.75 30C18.75 30.6904 19.3096 31.25 20 31.25Z" fill="#21006F"/>
<path d="M20.7694 13.6378C21.4644 13.8366 22.2085 13.7704 22.8575 13.4521C23.5065 13.1338 24.0143 12.5859 24.2826 11.9147L24.9557 10.2328C25.0141 10.0871 25.0155 9.92473 24.9597 9.77802C24.9039 9.6313 24.7949 9.51096 24.6544 9.44091L22.1544 8.19091C22.081 8.15419 22.001 8.1323 21.9191 8.1265C21.8372 8.1207 21.7549 8.1311 21.677 8.1571C21.5991 8.1831 21.5271 8.2242 21.4651 8.27805C21.4031 8.33189 21.3524 8.39743 21.3157 8.47091L20.8819 9.33904C20.5194 9.26565 20.1865 9.087 19.9249 8.82543C19.6634 8.56386 19.4847 8.23098 19.4113 7.86841L20.2794 7.43466C20.3529 7.398 20.4185 7.34722 20.4723 7.28522C20.5262 7.22321 20.5673 7.15121 20.5933 7.07331C20.6193 6.99542 20.6297 6.91316 20.6239 6.83125C20.6181 6.74933 20.5962 6.66936 20.5594 6.59591L19.3094 4.09591C19.2394 3.95558 19.1192 3.84671 18.9726 3.7909C18.826 3.7351 18.6638 3.73644 18.5182 3.79466L16.8357 4.46779C16.1644 4.73603 15.6166 5.24382 15.2982 5.89284C14.9799 6.54186 14.9137 7.28591 15.1126 7.98091C15.4929 9.32895 16.2126 10.5569 17.2031 11.5473C18.1935 12.5377 19.4214 13.2575 20.7694 13.6378ZM16.2501 7.17904C16.2489 6.84506 16.3484 6.51848 16.5356 6.24188C16.7228 5.96528 16.989 5.7515 17.2994 5.62841L18.4482 5.16904L19.1613 6.59591L18.4707 6.94091C18.3668 6.99283 18.2794 7.07267 18.2184 7.17148C18.1573 7.27028 18.125 7.38414 18.1251 7.50029C18.1261 8.32878 18.4556 9.12306 19.0415 9.7089C19.6273 10.2947 20.4216 10.6243 21.2501 10.6253C21.3667 10.6259 21.4813 10.5939 21.5807 10.5328C21.6801 10.4717 21.7604 10.384 21.8126 10.2797L22.1576 9.59216L23.5838 10.3053L23.1244 11.4534C22.9666 11.8344 22.6751 12.1447 22.3046 12.326C21.9342 12.5073 21.5103 12.547 21.1126 12.4378C19.9685 12.1155 18.9264 11.5048 18.086 10.6644C17.2455 9.82394 16.6349 8.78182 16.3126 7.63779C16.2704 7.48854 16.2494 7.33412 16.2501 7.17904Z" fill="#21006F"/>
</svg>
