<svg width="60" height="60" viewBox="0 0 60 60" fill="none" xmlns="http://www.w3.org/2000/svg">
<g clip-path="url(#clip0_2051_6974)">
<path d="M30 0C13.4388 0 0 13.4362 0 29.9975C0 46.56 13.44 60 30 60C46.56 60 60 46.5588 60 29.9975C60 13.435 46.5612 0 30 0ZM30 1.26C45.88 1.26 58.74 14.1162 58.74 29.9975C58.74 45.8787 45.88 58.74 30 58.74C14.12 58.74 1.26 45.8775 1.26 29.9975C1.26 14.1162 14.12 1.26 30 1.26ZM29.3 11.2937C20.5475 11.625 13.04 18.015 11.525 26.8013C11.5004 26.9664 11.5392 27.1347 11.6335 27.2724C11.7279 27.4101 11.8709 27.5071 12.0337 27.5438C12.1987 27.5684 12.3669 27.5298 12.5046 27.4357C12.6423 27.3416 12.7393 27.1989 12.7762 27.0362C13.5026 22.8075 15.759 18.9937 19.1157 16.3212C22.4724 13.6487 26.6948 12.3042 30.9788 12.5437C39.8512 13.0387 46.9388 20.0812 47.4638 28.95C47.9888 37.82 41.7612 45.6937 33.01 47.2313C32.921 47.2385 32.8344 47.264 32.7556 47.3059C32.6768 47.3479 32.6074 47.4055 32.5517 47.4753C32.496 47.5451 32.4551 47.6255 32.4316 47.7117C32.4081 47.7978 32.4024 47.8878 32.415 47.9762C32.4362 48.063 32.4749 48.1444 32.5289 48.2156C32.5829 48.2867 32.6509 48.3459 32.7287 48.3897C32.8066 48.4334 32.8926 48.4606 32.9814 48.4697C33.0702 48.4788 33.1599 48.4696 33.245 48.4425C42.6113 46.7975 49.275 38.3662 48.7138 28.8725C48.1513 19.3787 40.5525 11.8237 31.0575 11.2937C30.4638 11.26 29.8825 11.2712 29.2987 11.2937H29.3ZM29.885 13.755C29.7422 13.7864 29.6142 13.8653 29.522 13.9788C29.4299 14.0923 29.3789 14.2338 29.3775 14.38V15.63C29.3812 15.7955 29.4479 15.9534 29.5641 16.0714C29.6802 16.1894 29.837 16.2587 30.0025 16.265C30.168 16.2587 30.3248 16.1894 30.4409 16.0714C30.5571 15.9534 30.6238 15.7955 30.6275 15.63V14.38C30.6213 14.2162 30.5535 14.0608 30.4376 13.9449C30.3217 13.829 30.1663 13.7612 30.0025 13.755H29.885ZM29.9638 17.505C29.8068 17.5201 29.6606 17.5919 29.5527 17.7069C29.4448 17.822 29.3825 17.9724 29.3775 18.13V23.13C29.3812 23.2955 29.4479 23.4534 29.5641 23.5714C29.6802 23.6894 29.837 23.7587 30.0025 23.765C30.168 23.7587 30.3248 23.6894 30.4409 23.5714C30.5571 23.4534 30.6238 23.2955 30.6275 23.13V18.13C30.621 17.9596 30.5477 17.7985 30.4236 17.6816C30.2994 17.5647 30.1343 17.5013 29.9638 17.505ZM24.6513 25.5912C23.0188 25.5912 22.1513 26.5537 22.1513 28.2475V29.3013H23.7525V28.1688C23.7525 27.4137 24.0825 27.1138 24.6112 27.1138C25.1412 27.1138 25.4713 27.3725 25.4713 28.3262C25.4713 31.3787 22.1513 31.8913 22.1513 35.005V36.2938H26.955V34.81H23.83C23.815 34.735 23.83 34.6512 23.83 34.575C23.83 32.8375 27.1112 31.5725 27.1112 28.2475C27.1112 26.5537 26.2838 25.5912 24.6513 25.5912ZM30.7838 25.7075L27.7763 32.895V34.38H30.9788V36.2938H32.62V34.38H33.4013V32.895H32.62V25.7075H30.7838ZM30.9788 28.9112V32.895H29.3L30.9788 28.9112ZM34.3775 29.38C34.2143 29.4015 34.0652 29.4839 33.9602 29.6107C33.8551 29.7375 33.802 29.8994 33.8112 30.0638C33.8328 30.227 33.9152 30.3761 34.042 30.4811C34.1688 30.5861 34.3306 30.6393 34.495 30.63H41.8775C42.0428 30.6254 42.2001 30.5584 42.318 30.4424C42.4358 30.3265 42.5053 30.1702 42.5125 30.005C42.5062 29.8395 42.4369 29.6827 42.3189 29.5666C42.2009 29.4504 42.043 29.3837 41.8775 29.38H34.3775ZM44.26 29.38C44.0968 29.4015 43.9477 29.4839 43.8427 29.6107C43.7377 29.7375 43.6845 29.8994 43.6938 30.0638C43.7153 30.227 43.7977 30.3761 43.9245 30.4811C44.0513 30.5861 44.2131 30.6393 44.3775 30.63H45.6275C45.7928 30.6254 45.9501 30.5584 46.068 30.4424C46.1858 30.3265 46.2553 30.1702 46.2625 30.005C46.2562 29.8395 46.1869 29.6827 46.0689 29.5666C45.9509 29.4504 45.793 29.3837 45.6275 29.38H44.26ZM11.76 30.005C11.6389 30.0377 11.5301 30.1056 11.4475 30.2C11.4471 30.2129 11.4471 30.2258 11.4475 30.2388C11.4031 30.2723 11.3635 30.3118 11.33 30.3563C11.3296 30.3692 11.3296 30.3821 11.33 30.395C11.3158 30.4204 11.3033 30.4467 11.2925 30.4737C11.2921 30.4867 11.2921 30.4996 11.2925 30.5125C11.2724 30.5626 11.259 30.6152 11.2525 30.6688C11.4288 40.5475 19.3963 48.4937 29.26 48.7162C29.3376 48.7313 29.4174 48.7313 29.495 48.7162C29.6255 48.7022 29.7484 48.6475 29.8463 48.56C29.8765 48.5239 29.9025 48.4845 29.9237 48.4425C29.9377 48.4302 29.951 48.4173 29.9638 48.4037C29.9805 48.366 29.9935 48.3266 30.0025 48.2863C30.0359 48.1715 30.0359 48.0497 30.0025 47.935V42.035C30.0171 41.9578 30.0171 41.8785 30.0025 41.8013C29.9857 41.7023 29.9454 41.6089 29.885 41.5287C29.8854 41.5154 29.8854 41.5021 29.885 41.4888H29.8463C29.8466 41.4763 29.8466 41.4637 29.8463 41.4512C29.7538 41.3492 29.6304 41.2803 29.495 41.255C29.4437 41.2425 29.3901 41.2425 29.3388 41.255C27.9653 41.3172 26.6086 40.9336 25.4713 40.1613H25.4325C25.4329 40.1483 25.4329 40.1354 25.4325 40.1225H25.355C25.3554 40.1092 25.3554 40.0958 25.355 40.0825C25.2808 40.0426 25.1993 40.018 25.1154 40.0103C25.0315 40.0025 24.9469 40.0118 24.8666 40.0374C24.7864 40.0631 24.7121 40.1047 24.6482 40.1597C24.5844 40.2146 24.5323 40.2819 24.495 40.3575L24.455 40.395L23.5575 42.1925C21.1128 40.926 19.1203 38.9335 17.8538 36.4888L19.69 35.5137C19.8038 35.4482 19.8948 35.3492 19.9507 35.2303C20.0066 35.1114 20.0247 34.9782 20.0025 34.8488V34.8113C19.9916 34.7845 19.9786 34.7586 19.9637 34.7337C19.9641 34.7208 19.9641 34.7079 19.9637 34.695C19.951 34.6815 19.9377 34.6685 19.9237 34.6562C19.9133 34.6291 19.9007 34.6028 19.8862 34.5775C19.8867 34.5646 19.8867 34.5517 19.8862 34.5387C19.1113 33.4026 18.7269 32.0451 18.7913 30.6713C18.8175 30.3038 18.4537 29.96 18.0887 30.0075H11.76V30.005Z" fill="#00236F"/>
</g>
<defs>
<clipPath id="clip0_2051_6974">
<rect width="60" height="60" fill="white"/>
</clipPath>
</defs>
</svg>
