<svg width="40" height="40" viewBox="0 0 40 40" fill="none" xmlns="http://www.w3.org/2000/svg">
<path d="M36.1537 25.3991V6.92289C36.1537 5.22593 34.7733 3.84597 33.0767 3.84597H29.2306V3.07674C29.2306 1.8042 28.1954 0.769043 26.9229 0.769043C25.6503 0.769043 24.6152 1.8042 24.6152 3.07674V3.84597H12.3075V3.07674C12.3075 1.8042 11.2724 0.769043 9.99981 0.769043C8.72727 0.769043 7.69212 1.8042 7.69212 3.07674V3.84597H3.84597C2.14937 3.84597 0.769043 5.22593 0.769043 6.92289V33.0767C0.769043 34.7737 2.14937 36.1537 3.84597 36.1537H25.3991C26.8041 38.0178 29.0294 39.2306 31.5383 39.2306C35.7799 39.2306 39.2306 35.7796 39.2306 31.5383C39.2306 29.0295 38.0179 26.8042 36.1537 25.3991ZM26.1537 3.07674C26.1537 2.6523 26.4988 2.3075 26.9229 2.3075C27.3469 2.3075 27.6921 2.6523 27.6921 3.07674V9.23058C27.6921 9.65501 27.3469 9.99981 26.9229 9.99981C26.4988 9.99981 26.1537 9.65501 26.1537 9.23058V3.07674ZM24.7607 10.0116C25.0824 10.899 25.9258 11.5383 26.9229 11.5383C27.92 11.5383 28.7633 10.899 29.0851 10.0117C29.1705 10.2538 29.2306 10.5054 29.2306 10.769C29.2306 12.0416 28.1954 13.0767 26.9229 13.0767C25.6503 13.0767 24.6152 12.0416 24.6152 10.769C24.6152 10.5054 24.6752 10.2538 24.7607 10.0116ZM9.23058 3.07674C9.23058 2.6523 9.57576 2.3075 9.99981 2.3075C10.4239 2.3075 10.769 2.6523 10.769 3.07674V9.23058C10.769 9.65501 10.4239 9.99981 9.99981 9.99981C9.57576 9.99981 9.23058 9.65501 9.23058 9.23058V3.07674ZM7.83757 10.0116C8.15937 10.899 9.00269 11.5383 9.99981 11.5383C10.9969 11.5383 11.8403 10.899 12.162 10.0117C12.2474 10.2538 12.3075 10.5054 12.3075 10.769C12.3075 12.0416 11.2724 13.0767 9.99981 13.0767C8.72727 13.0767 7.69212 12.0416 7.69212 10.769C7.69212 10.5054 7.75217 10.2538 7.83757 10.0116ZM2.3075 6.92289C2.3075 6.07478 2.99748 5.38443 3.84597 5.38443H7.69212V7.69817C6.73438 8.41717 6.15366 9.55487 6.15366 10.769C6.15366 12.8897 7.87917 14.6152 9.99981 14.6152C12.1205 14.6152 13.846 12.8897 13.846 10.769C13.846 9.55487 13.2652 8.41717 12.3075 7.69817V5.38443H24.6152V7.69817C23.6575 8.41717 23.0767 9.55487 23.0767 10.769C23.0767 12.8897 24.8022 14.6152 26.9229 14.6152C29.0435 14.6152 30.769 12.8897 30.769 10.769C30.769 9.55487 30.1883 8.41717 29.2306 7.69817V5.38443H33.0767C33.9252 5.38443 34.6152 6.07478 34.6152 6.92289V16.1537H2.3075V6.92289ZM24.6152 26.9229H19.9998C19.575 26.9229 19.2306 27.2669 19.2306 27.6921V32.3075C19.2306 32.7327 19.575 33.0767 19.9998 33.0767H24.001C24.1102 33.6123 24.2782 34.1261 24.4928 34.6152H3.84597C2.99748 34.6152 2.3075 33.9248 2.3075 33.0767V17.6921H34.6152V24.4927C33.672 24.0791 32.6324 23.846 31.5383 23.846C28.9061 23.846 26.5804 25.1763 25.193 27.1983C25.0519 27.0332 24.8494 26.9229 24.6152 26.9229ZM23.846 28.4613V31.5383H20.769V28.4613H23.846ZM31.5383 37.6921C28.1451 37.6921 25.3844 34.9314 25.3844 31.5383C25.3844 28.1451 28.1451 25.3844 31.5383 25.3844C34.9314 25.3844 37.6921 28.1451 37.6921 31.5383C37.6921 34.9314 34.9314 37.6921 31.5383 37.6921Z" fill="#006F36"/>
<path d="M9.2313 19.231H4.61591C4.1911 19.231 3.84668 19.575 3.84668 20.0002V24.6156C3.84668 25.0407 4.1911 25.3848 4.61591 25.3848H9.2313C9.6561 25.3848 10.0005 25.0407 10.0005 24.6156V20.0002C10.0005 19.575 9.6561 19.231 9.2313 19.231ZM8.46206 23.8463H5.38514V20.7694H8.46206V23.8463ZM9.2313 26.9233H4.61591C4.1911 26.9233 3.84668 27.2673 3.84668 27.6925V32.3079C3.84668 32.7331 4.1911 33.0771 4.61591 33.0771H9.2313C9.6561 33.0771 10.0005 32.7331 10.0005 32.3079V27.6925C10.0005 27.2673 9.6561 26.9233 9.2313 26.9233ZM8.46206 31.5386H5.38514V28.4617H8.46206V31.5386ZM16.9236 19.231H12.3082C11.8834 19.231 11.539 19.575 11.539 20.0002V24.6156C11.539 25.0407 11.8834 25.3848 12.3082 25.3848H16.9236C17.3484 25.3848 17.6928 25.0407 17.6928 24.6156V20.0002C17.6928 19.575 17.3484 19.231 16.9236 19.231ZM16.1544 23.8463H13.0774V20.7694H16.1544V23.8463ZM16.9236 26.9233H12.3082C11.8834 26.9233 11.539 27.2673 11.539 27.6925V32.3079C11.539 32.7331 11.8834 33.0771 12.3082 33.0771H16.9236C17.3484 33.0771 17.6928 32.7331 17.6928 32.3079V27.6925C17.6928 27.2673 17.3484 26.9233 16.9236 26.9233ZM16.1544 31.5386H13.0774V28.4617H16.1544V31.5386ZM24.6159 19.231H20.0005C19.5757 19.231 19.2313 19.575 19.2313 20.0002V24.6156C19.2313 25.0407 19.5757 25.3848 20.0005 25.3848H24.6159C25.0407 25.3848 25.3851 25.0407 25.3851 24.6156V20.0002C25.3851 19.575 25.0407 19.231 24.6159 19.231ZM23.8467 23.8463H20.7698V20.7694H23.8467V23.8463ZM32.3082 31.2201V27.6925C32.3082 27.2673 31.9638 26.9233 31.539 26.9233C31.1142 26.9233 30.7698 27.2673 30.7698 27.6925V31.5386C30.7698 31.743 30.8509 31.9383 30.9951 32.0825C30.9951 32.0825 33.3028 34.3902 33.3028 34.3902C33.6008 34.6882 34.0925 34.6883 34.3906 34.3902C34.691 34.0897 34.691 33.6029 34.3906 33.3025L32.3082 31.2201Z" fill="#006F36"/>
</svg>
