<svg width="24" height="24" viewBox="0 0 24 24" fill="none" xmlns="http://www.w3.org/2000/svg">
<path d="M7.85737 7.63675C8.63242 4.62545 11.366 2.40039 14.6192 2.40039C18.4752 2.40039 21.601 5.52626 21.601 9.38221C21.601 12.4564 19.6142 15.0666 16.8545 15.9985M7.85737 17.1261H9.38123M9.38123 17.1261H10.7994M9.38123 17.1261V11.5624C9.38123 11.5624 8.31742 12.2938 7.63578 12.7624M16.363 14.6186C16.363 18.4745 13.2372 21.6004 9.38123 21.6004C5.52528 21.6004 2.39941 18.4745 2.39941 14.6186C2.39941 10.7626 5.52528 7.63675 9.38123 7.63675C13.2372 7.63675 16.363 10.7626 16.363 14.6186Z" stroke="#464646" stroke-width="2" stroke-linecap="round" stroke-linejoin="round"/>
</svg>
