<svg width="32" height="32" viewBox="0 0 32 32" fill="none" xmlns="http://www.w3.org/2000/svg">
<g clip-path="url(#clip0_1050_9472)">
<path d="M14.6957 6.11625C14.8425 6.26273 15.0414 6.345 15.2488 6.345C15.4562 6.345 15.6551 6.26273 15.8019 6.11625L18.2026 3.71563C18.2461 3.67209 18.2806 3.62039 18.3042 3.56351C18.3278 3.50662 18.3399 3.44564 18.3399 3.38407C18.3399 3.32249 18.3278 3.26151 18.3042 3.20462C18.2806 3.14774 18.2461 3.09604 18.2026 3.0525C18.159 3.00896 18.1073 2.97442 18.0504 2.95086C17.9936 2.92729 17.9326 2.91516 17.871 2.91516C17.8094 2.91516 17.7485 2.92729 17.6916 2.95086C17.6347 2.97442 17.583 3.00896 17.5394 3.0525L15.2501 5.34313L14.4607 4.555C14.3728 4.46707 14.2535 4.41766 14.1291 4.41766C14.0048 4.41766 13.8855 4.46707 13.7976 4.555C13.7096 4.64294 13.6602 4.7622 13.6602 4.88656C13.6602 5.01092 13.7096 5.13019 13.7976 5.21813L14.6957 6.11625ZM16.0001 9.39C16.9286 9.39 17.8364 9.11465 18.6085 8.59875C19.3806 8.08286 19.9823 7.3496 20.3377 6.4917C20.693 5.6338 20.786 4.68979 20.6049 3.77905C20.4237 2.86831 19.9765 2.03174 19.3199 1.37514C18.6633 0.718528 17.8268 0.271373 16.916 0.0902152C16.0053 -0.0909424 15.0613 0.00203428 14.2034 0.357388C13.3455 0.712741 12.6122 1.31451 12.0963 2.0866C11.5804 2.85869 11.3051 3.76642 11.3051 4.695C11.3066 5.93974 11.8017 7.13306 12.6818 8.01322C13.562 8.89339 14.7553 9.38851 16.0001 9.39ZM16.0001 0.937502C16.7432 0.937502 17.4697 1.15788 18.0876 1.57076C18.7055 1.98363 19.1871 2.57048 19.4715 3.25707C19.7559 3.94366 19.8303 4.69917 19.6854 5.42805C19.5404 6.15694 19.1825 6.82646 18.657 7.35196C18.1315 7.87745 17.462 8.23532 16.7331 8.3803C16.0042 8.52529 15.2487 8.45088 14.5621 8.16648C13.8755 7.88208 13.2887 7.40048 12.8758 6.78256C12.4629 6.16464 12.2426 5.43817 12.2426 4.695C12.2437 3.69881 12.64 2.74374 13.3444 2.03933C14.0488 1.33491 15.0039 0.93866 16.0001 0.937502ZM31.2026 14.8519L26.3513 19.6306C26.2399 19.743 26.1073 19.8321 25.9612 19.8928C25.815 19.9536 25.6583 19.9847 25.5001 19.9844C25.3414 19.9848 25.1843 19.9538 25.0378 19.893C24.8912 19.8323 24.7582 19.7431 24.6463 19.6306L19.8663 14.8506C19.7371 14.722 19.639 14.5655 19.5794 14.3931C19.5776 14.3862 19.5751 14.3795 19.5719 14.3731C19.5016 14.1613 19.4917 13.9341 19.5435 13.717C19.5953 13.4999 19.7067 13.3016 19.8651 13.1444L31.8651 1.26938C31.9538 1.18136 32.004 1.06168 32.0045 0.936679C32.005 0.811674 31.9559 0.691579 31.8679 0.602815C31.7799 0.51405 31.6602 0.463886 31.5352 0.463359C31.4102 0.462831 31.2901 0.511984 31.2013 0.600002L19.2013 12.4794C18.9935 12.6888 18.8308 12.9386 18.7233 13.2134C18.6158 13.4881 18.5658 13.782 18.5763 14.0769H18.0682C17.6435 14.0772 17.2236 14.1671 16.8359 14.3406C16.4482 14.5141 16.1015 14.7673 15.8182 15.0838L15.7626 15.1463C15.0129 14.7771 14.1953 14.5663 13.3607 14.5269C13.4527 14.1662 13.4492 13.7878 13.3506 13.4289C13.2519 13.07 13.0616 12.743 12.7982 12.48L0.79944 0.528752C0.710426 0.446113 0.592809 0.401251 0.471371 0.40362C0.349933 0.405989 0.234156 0.455403 0.148432 0.541451C0.062708 0.627499 0.0137314 0.743462 0.0118209 0.864908C0.0099104 0.986354 0.0552152 1.1038 0.13819 1.1925L12.1382 13.1425C12.3642 13.3693 12.4911 13.6764 12.4911 13.9966C12.4911 14.3167 12.3642 14.6238 12.1382 14.8506L7.35819 19.6306C7.13142 19.8564 6.82445 19.9832 6.50444 19.9832C6.18443 19.9832 5.87746 19.8564 5.65069 19.6306L0.80069 14.7644C0.711988 14.6814 0.594542 14.6361 0.473096 14.638C0.35165 14.6399 0.235686 14.6889 0.149639 14.7746C0.0635906 14.8603 0.0141768 14.9761 0.011808 15.0976C0.00943923 15.219 0.0543005 15.3366 0.13694 15.4256L4.98506 20.2938C5.18439 20.4926 5.42096 20.6501 5.68125 20.7573C5.94154 20.8646 6.22042 20.9194 6.50194 20.9188C6.68023 20.9183 6.85779 20.896 7.03069 20.8525C7.04301 21.1061 7.07098 21.3586 7.11444 21.6088C6.92762 21.6995 6.75734 21.821 6.61069 21.9681L5.69131 22.8894C5.42951 23.1501 5.25102 23.4827 5.17849 23.845C5.10597 24.2074 5.14266 24.583 5.28392 24.9245C5.42517 25.2659 5.66464 25.5577 5.97195 25.7629C6.27926 25.968 6.64057 26.0773 7.01007 26.0769C7.04819 26.0769 7.08569 26.0769 7.12382 26.0731C7.12382 26.1106 7.12006 26.1481 7.12006 26.1863C7.11998 26.4312 7.16816 26.6738 7.26185 26.9002C7.35554 27.1265 7.4929 27.3322 7.66609 27.5054C7.83928 27.6787 8.0449 27.8161 8.27122 27.9099C8.49753 28.0036 8.7401 28.0519 8.98506 28.0519C9.02381 28.0519 9.06194 28.0519 9.10007 28.0481C9.08427 28.3022 9.12069 28.5568 9.20705 28.7962C9.29342 29.0356 9.42792 29.2548 9.60225 29.4403C9.77658 29.6257 9.98705 29.7735 10.2207 29.8745C10.4543 29.9755 10.7062 30.0276 10.9607 30.0275C10.9988 30.0275 11.0369 30.0275 11.0751 30.0231C11.0519 30.401 11.1443 30.7769 11.3399 31.101C11.5355 31.4251 11.8252 31.682 12.1703 31.8375C12.5154 31.9931 12.8997 32.0399 13.2721 31.9718C13.6445 31.9037 13.9873 31.7239 14.2551 31.4563L14.8251 30.8863L15.3951 31.4563C15.656 31.717 15.9884 31.8946 16.3502 31.9665C16.7121 32.0384 17.0871 32.0014 17.4279 31.8602C17.7687 31.7189 18.06 31.4799 18.265 31.1731C18.47 30.8664 18.5794 30.5058 18.5794 30.1369C18.5794 30.0988 18.5794 30.0606 18.5757 30.0225C18.6132 30.0225 18.6513 30.0263 18.6888 30.0263C18.9338 30.0265 19.1764 29.9785 19.4028 29.8849C19.6291 29.7913 19.8348 29.654 20.0081 29.4808C20.1814 29.3077 20.3188 29.102 20.4126 28.8757C20.5063 28.6494 20.5545 28.4068 20.5544 28.1619C20.5544 28.1231 20.5532 28.085 20.5507 28.0475C20.5888 28.0475 20.6263 28.0513 20.6644 28.0513C20.9095 28.0515 21.1521 28.0034 21.3785 27.9098C21.6049 27.8162 21.8107 27.6788 21.984 27.5056C22.1572 27.3324 22.2947 27.1267 22.3884 26.9003C22.4821 26.6739 22.5302 26.4313 22.5301 26.1863C22.5301 26.1481 22.5301 26.11 22.5263 26.0719C22.5638 26.0719 22.6019 26.0756 22.6394 26.0756C23.0084 26.0758 23.369 25.9665 23.6758 25.7616C23.9826 25.5567 24.2217 25.2654 24.363 24.9246C24.5042 24.5838 24.5412 24.2088 24.4693 23.8469C24.3973 23.4851 24.2197 23.1527 23.9588 22.8919L23.4907 22.4238C24.0568 21.9855 24.5422 21.4519 24.9251 20.8469C25.1118 20.8982 25.3045 20.9243 25.4982 20.9244C25.7792 20.9254 26.0576 20.8707 26.3174 20.7634C26.5771 20.6562 26.813 20.4984 27.0113 20.2994L31.8594 15.5231C31.943 15.4349 31.9891 15.3177 31.9879 15.1962C31.9867 15.0747 31.9384 14.9583 31.8531 14.8718C31.7679 14.7852 31.6523 14.7351 31.5308 14.7321C31.4093 14.7291 31.2914 14.7734 31.2019 14.8556L31.2026 14.8519ZM7.01007 25.1369C6.82651 25.1369 6.64708 25.0824 6.49446 24.9804C6.34184 24.8785 6.22289 24.7335 6.15265 24.5639C6.08241 24.3943 6.06403 24.2077 6.09984 24.0277C6.13564 23.8477 6.22403 23.6823 6.35382 23.5525L7.27381 22.6325C7.35968 22.5449 7.46205 22.4752 7.57503 22.4274C7.688 22.3796 7.80934 22.3546 7.93201 22.354C8.05468 22.3534 8.17625 22.3771 8.28971 22.4238C8.40316 22.4704 8.50624 22.5391 8.59298 22.6258C8.67972 22.7126 8.74841 22.8157 8.79506 22.9291C8.84172 23.0426 8.86543 23.1641 8.86481 23.2868C8.86419 23.4095 8.83926 23.5308 8.79145 23.6438C8.74365 23.7568 8.67393 23.8591 8.58632 23.945L7.66632 24.865C7.58032 24.9514 7.47805 25.02 7.36541 25.0666C7.25277 25.1133 7.13199 25.1372 7.01007 25.1369ZM9.64131 26.84C9.46667 27.0112 9.23153 27.1065 8.98701 27.1052C8.74248 27.104 8.50832 27.0063 8.33541 26.8334C8.1625 26.6605 8.06482 26.4263 8.06358 26.1818C8.06235 25.9373 8.15766 25.7022 8.32881 25.5275L9.25006 24.6081C9.33593 24.5205 9.4383 24.4508 9.55128 24.403C9.66426 24.3552 9.78559 24.3303 9.90826 24.3296C10.0309 24.329 10.1525 24.3527 10.266 24.3994C10.3794 24.446 10.4825 24.5147 10.5692 24.6015C10.656 24.6882 10.7247 24.7913 10.7713 24.9047C10.818 25.0182 10.8417 25.1398 10.8411 25.2624C10.8404 25.3851 10.8155 25.5064 10.7677 25.6194C10.7199 25.7324 10.6502 25.8348 10.5626 25.9206L9.64131 26.84ZM11.6169 28.8156C11.4429 28.9897 11.2068 29.0874 10.9607 29.0874C10.7146 29.0874 10.4785 28.9897 10.3044 28.8156C10.1307 28.6414 10.0331 28.4054 10.0331 28.1594C10.0331 27.9133 10.1307 27.6773 10.3044 27.5031L11.2244 26.5831C11.3991 26.412 11.6342 26.3167 11.8787 26.3179C12.1233 26.3191 12.3574 26.4168 12.5303 26.5897C12.7033 26.7626 12.8009 26.9968 12.8022 27.2413C12.8034 27.4858 12.7081 27.721 12.5369 27.8956L11.6169 28.8156ZM14.5119 29.8706L13.5919 30.7906C13.5058 30.8769 13.4035 30.9453 13.2909 30.992C13.1783 31.0387 13.0576 31.0627 12.9357 31.0627C12.8138 31.0627 12.6931 31.0387 12.5805 30.992C12.4679 30.9453 12.3656 30.8769 12.2794 30.7906L11.9476 31.1219L12.2788 30.7906C12.1052 30.6163 12.0078 30.3804 12.0078 30.1344C12.0078 29.8884 12.1052 29.6524 12.2788 29.4781L13.1988 28.5588C13.2847 28.4711 13.3871 28.4014 13.5 28.3536C13.613 28.3058 13.7343 28.2809 13.857 28.2803C13.9797 28.2796 14.1013 28.3033 14.2147 28.35C14.3282 28.3967 14.4312 28.4654 14.518 28.5521C14.6047 28.6388 14.6734 28.7419 14.7201 28.8554C14.7667 28.9688 14.7904 29.0904 14.7898 29.2131C14.7892 29.3357 14.7643 29.4571 14.7165 29.57C14.6687 29.683 14.5989 29.7854 14.5113 29.8713L14.5119 29.8706ZM23.5676 24.2088C23.5674 24.3922 23.5129 24.5715 23.411 24.7239C23.309 24.8764 23.1642 24.9953 22.9947 25.0655C22.8253 25.1357 22.6388 25.1541 22.4589 25.1185C22.279 25.0828 22.1136 24.9946 21.9838 24.865L18.9838 21.865C18.8959 21.7771 18.7766 21.7277 18.6523 21.7277C18.5279 21.7277 18.4086 21.7771 18.3207 21.865C18.2328 21.9529 18.1834 22.0722 18.1834 22.1966C18.1834 22.3209 18.2328 22.4402 18.3207 22.5281L21.3207 25.5281C21.4918 25.7028 21.5872 25.9379 21.5859 26.1824C21.5847 26.427 21.487 26.6611 21.3141 26.834C21.1412 27.0069 20.907 27.1046 20.6625 27.1059C20.418 27.1071 20.1828 27.0118 20.0082 26.8406L17.0082 23.8406C16.9655 23.7944 16.9139 23.7572 16.8565 23.7314C16.7992 23.7055 16.7372 23.6914 16.6742 23.69C16.6113 23.6886 16.5488 23.6999 16.4903 23.7232C16.4318 23.7465 16.3787 23.7814 16.334 23.8257C16.2892 23.87 16.2539 23.9228 16.2301 23.981C16.2062 24.0393 16.1943 24.1017 16.1951 24.1647C16.1959 24.2276 16.2094 24.2897 16.2347 24.3473C16.2601 24.4049 16.2967 24.4569 16.3426 24.5L19.3426 27.5C19.5137 27.6747 19.609 27.9098 19.6078 28.1543C19.6066 28.3988 19.5089 28.633 19.336 28.8059C19.1631 28.9788 18.9289 29.0765 18.6844 29.0777C18.4398 29.079 18.2047 28.9837 18.0301 28.8125L15.0301 25.8125C14.9417 25.7271 14.8233 25.6798 14.7004 25.6808C14.5775 25.6818 14.4599 25.731 14.373 25.8179C14.286 25.9048 14.2367 26.0223 14.2355 26.1452C14.2344 26.2681 14.2816 26.3866 14.3669 26.475L17.3669 29.475C17.5381 29.6497 17.6334 29.8848 17.6322 30.1293C17.6309 30.3738 17.5333 30.608 17.3603 30.7809C17.1874 30.9538 16.9533 31.0515 16.7087 31.0527C16.4642 31.054 16.2291 30.9587 16.0544 30.7875L15.4476 30.1806C15.6195 29.8977 15.713 29.5741 15.7185 29.2431C15.7241 28.912 15.6414 28.5855 15.479 28.2969C15.3167 28.0084 15.0805 27.7683 14.7946 27.6012C14.5088 27.4341 14.1836 27.3461 13.8526 27.3463C13.8144 27.3463 13.7769 27.3463 13.7388 27.35C13.7388 27.3119 13.7426 27.2744 13.7426 27.2363C13.7416 26.7428 13.5451 26.2699 13.1961 25.921C12.8471 25.5722 12.3741 25.3758 11.8807 25.375C11.8426 25.375 11.8044 25.375 11.7669 25.3788C11.7669 25.3413 11.7707 25.3031 11.7707 25.2656C11.7708 25.0206 11.7226 24.778 11.6288 24.5516C11.5351 24.3252 11.3977 24.1195 11.2244 23.9462C11.0512 23.773 10.8455 23.6356 10.6191 23.5418C10.3927 23.4481 10.1501 23.3999 9.90506 23.4C9.86694 23.4 9.82944 23.4 9.79194 23.4038C9.79194 23.3663 9.79569 23.3281 9.79569 23.29C9.79533 22.8133 9.61262 22.3548 9.28502 22.0085C8.95743 21.6622 8.50976 21.4543 8.03381 21.4275C7.97316 21.0696 7.95074 20.7064 7.96694 20.3438L8.01819 20.2944L12.7988 15.5144C12.8157 15.4975 12.8313 15.48 12.8476 15.4625C13.6222 15.4273 14.3947 15.5683 15.1069 15.875L12.5001 18.7875C12.2697 19.045 12.1467 19.3808 12.1563 19.7261C12.1658 20.0715 12.3071 20.4 12.5513 20.6444C13.0069 21.099 13.6242 21.3544 14.2679 21.3544C14.9115 21.3544 15.5289 21.099 15.9844 20.6444L18.1876 18.4438L18.3601 18.6163L23.2976 23.5538C23.3836 23.6397 23.4518 23.7418 23.4981 23.8542C23.5445 23.9667 23.5681 24.0872 23.5676 24.2088ZM23.7144 20.915C23.4504 21.2278 23.1511 21.509 22.8226 21.7531L20.9376 19.8688L18.5857 17.5169L18.5182 17.45C18.4747 17.4065 18.4231 17.3719 18.3662 17.3484C18.3094 17.3248 18.2485 17.3127 18.1869 17.3127C18.1254 17.3127 18.0645 17.3248 18.0076 17.3484C17.9508 17.3719 17.8992 17.4065 17.8557 17.45L15.3238 19.9813C15.0442 20.2601 14.6653 20.4167 14.2704 20.4167C13.8754 20.4167 13.4966 20.2601 13.2169 19.9813C13.142 19.9065 13.0985 19.8058 13.0956 19.7C13.0927 19.5942 13.1305 19.4913 13.2013 19.4125L16.5138 15.7088C16.7094 15.4904 16.9487 15.3156 17.2164 15.196C17.484 15.0764 17.7738 15.0145 18.0669 15.0144H18.8288C18.9285 15.1986 19.0549 15.3671 19.2038 15.5144L23.9832 20.2944C24.0207 20.3313 24.0588 20.3663 24.0982 20.4006C23.9806 20.5795 23.8524 20.7513 23.7144 20.915Z" fill="#00236F"/>
</g>
<defs>
<clipPath id="clip0_1050_9472">
<rect width="32" height="32" fill="white"/>
</clipPath>
</defs>
</svg>
