<svg width="40" height="40" viewBox="0 0 40 40" fill="none" xmlns="http://www.w3.org/2000/svg">
<path d="M23.75 8.125C18.9252 8.125 15 12.0502 15 16.875C15 21.6998 18.9252 25.625 23.75 25.625C28.5748 25.625 32.5 21.6998 32.5 16.875C32.5 12.0502 28.5748 8.125 23.75 8.125ZM23.75 24.375C19.6145 24.375 16.25 21.0108 16.25 16.875C16.25 12.7392 19.6145 9.375 23.75 9.375C27.8855 9.375 31.25 12.7392 31.25 16.875C31.25 21.0108 27.8855 24.375 23.75 24.375Z" fill="url(#paint0_linear_150_4551)"/>
<path d="M4.7454 34.3793L5.62126 35.2545C5.79048 35.4238 5.98735 35.5559 6.19407 35.6689V39.375C6.19407 39.7205 6.47391 40 6.81907 40H33.1814C33.5266 40 33.8064 39.7205 33.8064 39.375V21.8889C34.5634 20.3769 35.0002 18.6778 35.0002 16.875C35.0002 15.0722 34.5634 13.3731 33.8064 11.8611V0.625C33.8064 0.279531 33.5266 0 33.1814 0H6.81907C6.47391 0 6.19407 0.279531 6.19407 0.625V29.6005L4.89345 30.7068C4.36337 31.1578 4.04321 31.8158 4.01516 32.511C3.98735 33.2062 4.25345 33.8873 4.7454 34.3793ZM32.5564 38.75H7.44407V35.9859C7.45915 35.9856 7.47415 35.9857 7.48923 35.9851C7.9436 35.9667 8.37524 35.8129 8.75024 35.568V36.875C8.75024 37.2205 9.03009 37.5 9.37524 37.5H30.6252C30.9704 37.5 31.2502 37.2205 31.2502 36.875V25.2363C31.7226 24.8122 32.1612 24.3529 32.5564 23.8553V38.75ZM33.7502 16.875C33.7502 22.3889 29.2641 26.875 23.7502 26.875C18.2363 26.875 13.7502 22.3889 13.7502 16.875C13.7502 11.3611 18.2363 6.875 23.7502 6.875C29.2641 6.875 33.7502 11.3611 33.7502 16.875ZM30.0002 7.52734C28.2113 6.32727 26.0616 5.625 23.7502 5.625C17.547 5.625 12.5002 10.672 12.5002 16.875C12.5002 18.4539 12.8304 19.9562 13.4202 21.3212L11.8752 22.8662C11.3879 23.3533 11.3879 24.1468 11.8752 24.6338L11.9479 24.7065L10.0002 26.3631V3.75H30.0002V7.52734ZM12.759 23.75L14.0174 22.4916C14.8541 23.9358 15.9971 25.1795 17.3649 26.1264L16.2502 27.2412L12.759 23.75ZM15.3665 28.125C15.61 28.3685 15.9302 28.4906 16.2502 28.4906C16.5703 28.4906 16.8905 28.3686 17.134 28.125L18.4606 26.7982C20.0387 27.6428 21.8387 28.125 23.7502 28.125C26.0616 28.125 28.2113 27.4227 30.0002 26.2227V36.25H10.0002V34.2749L15.2936 28.0521L15.3665 28.125ZM7.44407 1.25H32.5564V9.89461C32.1612 9.39703 31.7227 8.93773 31.2502 8.51359V3.125C31.2502 2.77953 30.9704 2.5 30.6252 2.5H9.37524C9.03009 2.5 8.75024 2.77953 8.75024 3.125V27.4263L7.44407 28.5373V1.25ZM5.70337 31.6589L12.8347 25.5932L14.407 27.1655L8.34102 34.2969C8.11212 34.5655 7.79204 34.7217 7.43923 34.7357C7.0822 34.7485 6.7547 34.6203 6.50509 34.3707L5.62923 33.4955C5.37962 33.2459 5.25016 32.9138 5.26423 32.561C5.27852 32.2083 5.43454 31.8878 5.70337 31.6589Z" fill="url(#paint1_linear_150_4551)"/>
<path d="M18.75 14.375H25C25.3452 14.375 25.625 14.0955 25.625 13.75C25.625 13.4045 25.3452 13.125 25 13.125H18.75C18.4048 13.125 18.125 13.4045 18.125 13.75C18.125 14.0955 18.4048 14.375 18.75 14.375Z" fill="url(#paint2_linear_150_4551)"/>
<path d="M27.5 13.125C27.1548 13.125 26.875 13.4045 26.875 13.75C26.875 14.0955 27.1548 14.375 27.5 14.375H28.75C29.0952 14.375 29.375 14.0955 29.375 13.75C29.375 13.4045 29.0952 13.125 28.75 13.125H27.5Z" fill="url(#paint3_linear_150_4551)"/>
<path d="M20.625 15.625H18.75C18.4048 15.625 18.125 15.9045 18.125 16.25C18.125 16.5955 18.4048 16.875 18.75 16.875H20.625C20.9702 16.875 21.25 16.5955 21.25 16.25C21.25 15.9045 20.9702 15.625 20.625 15.625Z" fill="url(#paint4_linear_150_4551)"/>
<path d="M28.75 15.625H23.75C23.4048 15.625 23.125 15.9045 23.125 16.25C23.125 16.5955 23.4048 16.875 23.75 16.875H28.75C29.0952 16.875 29.375 16.5955 29.375 16.25C29.375 15.9045 29.0952 15.625 28.75 15.625Z" fill="url(#paint5_linear_150_4551)"/>
<path d="M28.75 18.125H21.875C21.5298 18.125 21.25 18.4045 21.25 18.75C21.25 19.0955 21.5298 19.375 21.875 19.375H28.75C29.0952 19.375 29.375 19.0955 29.375 18.75C29.375 18.4045 29.0952 18.125 28.75 18.125Z" fill="url(#paint6_linear_150_4551)"/>
<path d="M23.75 34.375C23.75 34.7205 24.0298 35 24.375 35H28.125C28.4702 35 28.75 34.7205 28.75 34.375V32.5C28.75 32.1545 28.4702 31.875 28.125 31.875C27.7798 31.875 27.5 32.1545 27.5 32.5V33.75H24.375C24.0298 33.75 23.75 34.0295 23.75 34.375Z" fill="url(#paint7_linear_150_4551)"/>
<path d="M16.875 30.625H26.25C26.5952 30.625 26.875 30.3455 26.875 30C26.875 29.6545 26.5952 29.375 26.25 29.375H16.875C16.5298 29.375 16.25 29.6545 16.25 30C16.25 30.3455 16.5298 30.625 16.875 30.625Z" fill="url(#paint8_linear_150_4551)"/>
<path d="M11.25 6.25H18.125C18.4702 6.25 18.75 5.97047 18.75 5.625C18.75 5.27953 18.4702 5 18.125 5H11.25C10.9048 5 10.625 5.27953 10.625 5.625C10.625 5.97047 10.9048 6.25 11.25 6.25Z" fill="url(#paint9_linear_150_4551)"/>
<defs>
<linearGradient id="paint0_linear_150_4551" x1="23.75" y1="-172.46" x2="23.75" y2="355.247" gradientUnits="userSpaceOnUse">
<stop stop-color="#00236F"/>
<stop offset="0.480769" stop-color="#959AA5"/>
<stop offset="1" stop-color="#00236F"/>
</linearGradient>
<linearGradient id="paint1_linear_150_4551" x1="19.5836" y1="-1.59436e-10" x2="19.5836" y2="40" gradientUnits="userSpaceOnUse">
<stop stop-color="#00236F"/>
<stop offset="0.490385" stop-color="#8291B1"/>
<stop offset="1" stop-color="#00236F"/>
</linearGradient>
<linearGradient id="paint2_linear_150_4551" x1="21.875" y1="0.226094" x2="21.875" y2="37.9195" gradientUnits="userSpaceOnUse">
<stop stop-color="#00236F"/>
<stop offset="0.480769" stop-color="#959AA5"/>
<stop offset="1" stop-color="#00236F"/>
</linearGradient>
<linearGradient id="paint3_linear_150_4551" x1="28.125" y1="0.226094" x2="28.125" y2="37.9195" gradientUnits="userSpaceOnUse">
<stop stop-color="#00236F"/>
<stop offset="0.480769" stop-color="#959AA5"/>
<stop offset="1" stop-color="#00236F"/>
</linearGradient>
<linearGradient id="paint4_linear_150_4551" x1="19.6875" y1="2.72609" x2="19.6875" y2="40.4195" gradientUnits="userSpaceOnUse">
<stop stop-color="#00236F"/>
<stop offset="0.480769" stop-color="#959AA5"/>
<stop offset="1" stop-color="#00236F"/>
</linearGradient>
<linearGradient id="paint5_linear_150_4551" x1="26.25" y1="2.72609" x2="26.25" y2="40.4195" gradientUnits="userSpaceOnUse">
<stop stop-color="#00236F"/>
<stop offset="0.480769" stop-color="#959AA5"/>
<stop offset="1" stop-color="#00236F"/>
</linearGradient>
<linearGradient id="paint6_linear_150_4551" x1="25.3125" y1="5.22609" x2="25.3125" y2="42.9195" gradientUnits="userSpaceOnUse">
<stop stop-color="#00236F"/>
<stop offset="0.480769" stop-color="#959AA5"/>
<stop offset="1" stop-color="#00236F"/>
</linearGradient>
<linearGradient id="paint7_linear_150_4551" x1="26.25" y1="-0.372265" x2="26.25" y2="93.8611" gradientUnits="userSpaceOnUse">
<stop stop-color="#00236F"/>
<stop offset="0.480769" stop-color="#959AA5"/>
<stop offset="1" stop-color="#00236F"/>
</linearGradient>
<linearGradient id="paint8_linear_150_4551" x1="21.5625" y1="16.4761" x2="21.5625" y2="54.1695" gradientUnits="userSpaceOnUse">
<stop stop-color="#00236F"/>
<stop offset="0.480769" stop-color="#959AA5"/>
<stop offset="1" stop-color="#00236F"/>
</linearGradient>
<linearGradient id="paint9_linear_150_4551" x1="14.6875" y1="-7.89891" x2="14.6875" y2="29.7945" gradientUnits="userSpaceOnUse">
<stop stop-color="#00236F"/>
<stop offset="0.480769" stop-color="#959AA5"/>
<stop offset="1" stop-color="#00236F"/>
</linearGradient>
</defs>
</svg>
