<svg width="32" height="32" viewBox="0 0 32 32" fill="none" xmlns="http://www.w3.org/2000/svg">
<path fill-rule="evenodd" clip-rule="evenodd" d="M4 18.6667C4 18.8435 4.07024 19.013 4.19526 19.1381C4.32029 19.2631 4.48986 19.3333 4.66667 19.3333H9.33333C9.51014 19.3333 9.67971 19.2631 9.80474 19.1381C9.92976 19.013 10 18.8435 10 18.6667V6.66667C10 6.48986 9.92976 6.32029 9.80474 6.19526C9.67971 6.07024 9.51014 6 9.33333 6H4.66667C4.48986 6 4.32029 6.07024 4.19526 6.19526C4.07024 6.32029 4 6.48986 4 6.66667V18.6667ZM5.33333 18V7.33333H8.66667V18H5.33333Z" fill="#464646"/>
<path fill-rule="evenodd" clip-rule="evenodd" d="M18.4853 25.24C18.3247 25.4008 18.1256 25.5179 17.907 25.5801C17.6884 25.6423 17.4576 25.6476 17.2363 25.5955C17.0151 25.5434 16.8109 25.4356 16.643 25.2824C16.4752 25.1292 16.3493 24.9356 16.2773 24.72L15.3 21.7893C15.2714 21.7021 15.2251 21.6218 15.164 21.5533L12.164 18.22C12.1013 18.1506 12.0248 18.0952 11.9394 18.0573C11.8539 18.0194 11.7614 17.9998 11.668 18H10.0013V7.33333H23.064C23.3673 7.33339 23.6615 7.43685 23.8981 7.62665C24.1347 7.81646 24.2995 8.08125 24.3653 8.37733L25.9626 15.5667C26.0275 15.859 26.0259 16.1621 25.958 16.4537C25.8901 16.7453 25.7576 17.0179 25.5702 17.2515C25.3829 17.485 25.1455 17.6735 24.8755 17.8031C24.6056 17.9326 24.31 17.9999 24.0106 18H18.668C18.5682 18 18.4697 18.0225 18.3798 18.0656C18.2899 18.1088 18.2108 18.1716 18.1483 18.2494C18.0859 18.3272 18.0417 18.418 18.019 18.5151C17.9963 18.6123 17.9958 18.7133 18.0173 18.8107L19.112 23.74C19.1606 23.9589 19.1533 24.1866 19.0906 24.402C19.0279 24.6173 18.9119 24.8134 18.7533 24.972L18.4853 25.24ZM15.012 25.1413C15.1558 25.5726 15.4075 25.9599 15.7431 26.2665C16.0787 26.5731 16.4872 26.7889 16.9296 26.8932C17.3721 26.9975 17.8339 26.987 18.2712 26.8627C18.7084 26.7383 19.1066 26.5042 19.428 26.1827L19.696 25.9147C20.0131 25.5974 20.2451 25.2053 20.3705 24.7746C20.4959 24.3439 20.5106 23.8886 20.4133 23.4507L19.4986 19.3333H24.0106C24.5097 19.3332 25.0024 19.2211 25.4523 19.0051C25.9022 18.7892 26.2979 18.475 26.6101 18.0857C26.9224 17.6964 27.1433 17.2419 27.2564 16.7558C27.3696 16.2698 27.3722 15.7645 27.264 15.2773L25.668 8.088C25.5363 7.49561 25.2065 6.96585 24.733 6.58622C24.2596 6.20659 23.6708 5.9998 23.064 6H9.33464C9.15782 6 8.98826 6.07024 8.86323 6.19526C8.73821 6.32029 8.66797 6.48986 8.66797 6.66667V18.6667C8.66797 18.8435 8.73821 19.013 8.86323 19.1381C8.98826 19.2631 9.15782 19.3333 9.33464 19.3333H11.3706L14.08 22.3427L15.012 25.1413Z" fill="#464646"/>
</svg>
