<svg width="32" height="32" viewBox="0 0 32 32" fill="none" xmlns="http://www.w3.org/2000/svg">
<path fill-rule="evenodd" clip-rule="evenodd" d="M4 14.6667C4 14.4899 4.07024 14.3203 4.19526 14.1953C4.32029 14.0702 4.48986 14 4.66667 14H9.33333C9.51014 14 9.67971 14.0702 9.80474 14.1953C9.92976 14.3203 10 14.4899 10 14.6667V26.6667C10 26.8435 9.92976 27.013 9.80474 27.1381C9.67971 27.2631 9.51014 27.3333 9.33333 27.3333H4.66667C4.48986 27.3333 4.32029 27.2631 4.19526 27.1381C4.07024 27.013 4 26.8435 4 26.6667V14.6667ZM5.33333 15.3333V26H8.66667V15.3333H5.33333Z" fill="#464646"/>
<path fill-rule="evenodd" clip-rule="evenodd" d="M18.4853 8.09353C18.3247 7.93273 18.1256 7.81567 17.907 7.75344C17.6884 7.69122 17.4576 7.68591 17.2363 7.73801C17.0151 7.79011 16.8109 7.89789 16.643 8.05112C16.4752 8.20436 16.3493 8.39795 16.2773 8.61353L15.3 11.5442C15.2712 11.6309 15.2249 11.7108 15.164 11.7789L12.164 15.1122C12.1015 15.1818 12.025 15.2375 11.9395 15.2757C11.8541 15.3138 11.7615 15.3335 11.668 15.3335H10.0013V26.0002H23.064C23.3673 26.0001 23.6615 25.8967 23.8981 25.7069C24.1347 25.5171 24.2995 25.2523 24.3653 24.9562L25.9626 17.7669C26.0275 17.4746 26.0259 17.1714 25.958 16.8798C25.8901 16.5882 25.7576 16.3156 25.5702 16.0821C25.3829 15.8485 25.1455 15.66 24.8755 15.5305C24.6056 15.4009 24.31 15.3336 24.0106 15.3335H18.668C18.5682 15.3335 18.4697 15.3111 18.3798 15.2679C18.2899 15.2247 18.2108 15.162 18.1483 15.0842C18.0859 15.0064 18.0417 14.9155 18.019 14.8184C17.9963 14.7213 17.9958 14.6203 18.0173 14.5229L19.112 9.59353C19.1606 9.37458 19.1533 9.1469 19.0906 8.93155C19.0279 8.7162 18.9119 8.52014 18.7533 8.36153L18.4853 8.09353ZM15.012 8.1922C15.1558 7.76094 15.4075 7.37361 15.7431 7.067C16.0787 6.76038 16.4872 6.54466 16.9296 6.44033C17.3721 6.33599 17.8339 6.3465 18.2712 6.47086C18.7084 6.59522 19.1066 6.8293 19.428 7.15086L19.696 7.41886C20.0131 7.73609 20.2451 8.1282 20.3705 8.5589C20.4959 8.9896 20.5106 9.44497 20.4133 9.88286L19.4986 14.0002H24.0106C24.5097 14.0003 25.0024 14.1125 25.4523 14.3284C25.9022 14.5444 26.2979 14.8586 26.6101 15.2479C26.9224 15.6372 27.1433 16.0916 27.2564 16.5777C27.3696 17.0637 27.3722 17.569 27.264 18.0562L25.6666 25.2455C25.535 25.8377 25.2054 26.3673 24.7322 26.7469C24.259 27.1265 23.6706 27.3334 23.064 27.3335H9.33464C9.15782 27.3335 8.98826 27.2633 8.86323 27.1383C8.73821 27.0132 8.66797 26.8437 8.66797 26.6669V14.6669C8.66797 14.4901 8.73821 14.3205 8.86323 14.1955C8.98826 14.0704 9.15782 14.0002 9.33464 14.0002H11.3706L14.08 10.9909L15.012 8.1922Z" fill="#464646"/>
</svg>
