<svg width="18" height="18" viewBox="0 0 18 18" fill="none" xmlns="http://www.w3.org/2000/svg">
<path d="M1 16H11C11.5523 16 12 16.4477 12 17C12 17.4909 11.6462 17.8992 11.1798 17.9839L11 18H1C0.447715 18 0 17.5523 0 17C0 16.5091 0.35375 16.1008 0.820249 16.0161L1 16ZM4.29303 4.29276C4.64023 3.94569 5.17908 3.90722 5.56877 4.17729L5.70724 4.29303L13.7042 12.293C14.0946 12.6836 14.0945 13.3168 13.7039 13.7072C13.3567 14.0543 12.8179 14.0928 12.4282 13.8227L12.2897 13.707L4.29276 5.70697C3.90231 5.31637 3.90243 4.68321 4.29303 4.29276ZM17 0C17.4909 0 17.8992 0.35375 17.9839 0.820249L18 1V11C18 11.5523 17.5523 12 17 12C16.5091 12 16.1008 11.6462 16.0161 11.1798L16 11V1C16 0.447715 16.4477 0 17 0Z" fill="#464646"/>
</svg>
